<mxfile host="Electron" agent="Mozilla/5.0 (Windows NT 10.0; Win64; x64) AppleWebKit/537.36 (KHTML, like Gecko) draw.io/24.7.8 Chrome/128.0.6613.36 Electron/32.0.1 Safari/537.36" version="24.7.8">
  <diagram name="Page-1" id="UIQMiKU0smXXbEcdwFG7">
    <mxGraphModel dx="1822" dy="592" grid="1" gridSize="10" guides="1" tooltips="1" connect="1" arrows="1" fold="1" page="1" pageScale="1" pageWidth="1100" pageHeight="850" math="0" shadow="0">
      <root>
        <mxCell id="0" />
        <mxCell id="1" parent="0" />
        <mxCell id="-4S_704-1h1x6RabV06D-2" value="" style="shape=image;verticalLabelPosition=bottom;labelBackgroundColor=default;verticalAlign=top;aspect=fixed;imageAspect=0;image=data:image/png,iVBORw0KGgoAAAANSUhEUgAAAmkAAAA4CAYAAACmPG+pAAAAAXNSR0IArs4c6QAAAARnQU1BAACxjwv8YQUAAAAJcEhZcwAAEnQAABJ0Ad5mH3gAAAiQSURBVHhe7d29dqJMGMDxh/dG0kiKPV4BXAFukyqtnZTapEuZLg2U2qV1mzSRK9AryEkRKJIr4Z0ZBqOiYvzYRfP/ncNGnAEVnhkeGXCdP3/+5AIAAIBGcXLFPgYqPj8/5erqys4B54cYbgb2w2Vivx6mbvv9Z/8CAACgQUjSAAAAGogkDQAAoIFI0gAAABqIJA0AAKCBSNIAAAAaiCQNAACggUjSAAAAGogkDQAAoIFWkrRMYt8RJ0zsfCGLfXGcUObPZomEup5jJ1+VZbbMyuJQ/LLc8SWMlyuYdfqxZFlcrGvlNQEAAH6yPc6kqUSu25FReyJpnkuepzJpj6TTVQlXWUMlYO5A5D5NVXku6eRWXgeuVPOwsXS7b/LrXq1rGNjnAAAAsEeSlsrbTMRTj1pmviXBUCVr076dT+RxMJPeZChBy9YI+vIUeTJ6+ErkjFlb7qdD6QeBXRYAAADaHklaIMNJT2TUMcOYfhhLvDjWmb3Lq/oz6pRDncXkqsQNAAAAu9nvxoFgKFM9jJney62MZdxxi+vLbLHWm+ih0JVpfrYNAAAA2+yVpGVZkY61WoH0h1OZ6jNrs7G86Kdb19JWf17flwY2lUwtZx8CAABgq5UkrSXXOsMaPZghTJ2MJXEo3aWhykQeXVf8WJWbeVXnXQ9wtuXanCYL5C7yZDbofg2D6rtBHVfcR+7gBAAA2EXlTFownEjPm8mgo5IqtyvPclecKZsLZJhG0h6rcnO9mSudcVuidKhKCq3+VNKoXQyD6jpuR1573MEJAACwKyfXF4sBG3x+fsrV1ZWdA84PMdwM7IfLxH49TN322+/GAQAAAJwUSRoAAEADkaQBAAA0EEkaAABAAzlq4sYBAACAf+Dj48M+quLuTmylf0KFEME5I4abgf1wmdivh6nbfgx3AgAANBBJGgAAQAORpAEAADQQSRoAAEADkaQBAAA00F5JWhb74jihJHYe+HcyiX1HnJBoBL7rfPty2j1+hmqSlsQSxgQ+GowYBQD8AJUkLXkeyGjwzFkyNBYxCgD4CSpJWjDMJc+HEth5oGmIUQDAT1BJ0sw1Cn4smZ3XY/9JqK9bcMzkh4mktgQ/VxaH4tuYcBxfwvgrYrQkLK4XyZKFen4oploWS6ivJ1l8rpQlquwr3tatuxqjwPdsis/km7FY1CnLN61jXfm6a6pUXVNnuf/V9fyF1622PfU5bJk2bx9lO5u/RvP68s3vtf5zrlPXL+HvMO1rcb+W+2Mx3HdoX3sfR5SLiYV8RRp5uXhRntr5SU//355eHk3SPE3VFPVyz/x/n718Yuvgcq0JkSJG9P5X8WDmJ5GJid5CQBRxI7mnYknXS9NJ3tNx43nquWJZ/Vzk6efKeEuL+d5X/KWTnlnP4rqXY7RchmjEeuti2MSnisWeihvTr+0Vi1+xVy5TrLcam+vK5+3IlCl6/bp96P62fFFVqttN+ZrFMgv9sW173tcCtn0U7SyalK/97/vyjX3Jmvda/zmr7X6+PVV9M7+mX8LxbWxfen+p9lP09XZ/zWNtl/a1sB7VZnY/jpxXLKzbfosqpUWjKT9ssUEWOwBtvgHsPC5XNYCWDxql5bixjWthXluto9XHUjUGl9dT7ayBRes6QROfqzGz5iCxbDUW7fzGBWrKU33g+ErITFyrujqe569h3lPZPqptQVttQ+vb1G7LntK6/bD/e11t98Uyq5vaLLPS5+C4Nrav1e1uYnnxC8iq6n7f7zhyXrGwbvst2v4THNm7vKo/7etWMQ/YmBh1ytPIxeQOZkX5EWRJLHEYiu/7aurIyD4PnFRwI6pzX7I9FgMZqqOIagxmOMUPVd2lsc6a8tZvufVmMn4xYzfyMp5J7yaQ37eezN6KgcjkWb1i76a4/nJDf9y6bqt/X+V922jOOfXl+3zOv9Av4fhO0tdfWCxsT9KADdS3FJ3+L0/Tvhx2CCiuv3Ef3kRu7uTpaSrT6aRy4AROb8dYDIYyVbGfpvdyK2MZd9ziWhxbvL28VSRk4xc1n8rbrCcqR1O52614I333cibv6mijEzfs5jT9Eo7v9H39pcTC9iStdS3mu8vWr2j4UTbGRCbZoWGSvchYfdnp3Q+lH7SktVNraon5gg0cKnlW3+Q9+eWqxzvGYmaDvtUKpD9UBxp95mw2FnNyTKkrNwnZ7E1S/dreL9EvXbSxkTzH+j0UiZuxoe1lOpNTJVtPkp1TX77T51xp96fsl3B8e/X1O7qwWKg5kxbIje5TBl1zml53OPouiy6nkH+wQO4i9e3fxoSh79JxXHEfD/zlsnnjsutR8RaHD7udAn99loTeGN8xepBQ3zmm+zUdww8q0rxb+a0PGDvFYiKPrmvuvCwiL5NkKZGoK1fMkOdIOh2VHt7+tt/yi373dTyWWTnUaSy3vaI/jk1/7EV3C/XWOae+/Bufc97uT9gv4fgO6etrXVYs1A53BsNUItW4Bx31AVWH032+kSe1AfBztfpTSaN2MXSjx/vdjrz2JpIODx2WsdfwDPQ1PGq93UeRuyepC7fgLpKeat4dVzVK2yaBWr17ufv1LF3Vr7kqhkcqiiZP5XDILrGo6qSRtMdqeXPdiyudcVuitPwNv7pyrTwj5MmtyQ4LgcqoZrPiGrVFi21P98duZyztaCJP/a9lNzmnvnyXz7na7k/XL+H49uvrd3VJseDkeqAW2EAHOCGCc7YuhvXvL3VkIjkH8L+GvuQysV8PU7f9ls6k6crfnQAAAHB8S0mazua+OwEAAOD4GO7EVvpsKSGCc0YMNwP74TKxXw9Tt/1qbxwAAADA36cvKiMFBgAA+Ac+Pj7soyqGO7HV5+enXF1d2Tng/BDDzcB+uEzs18PUbT+GOwEAABqIJA0AAKCBSNIAAAAaiCQNAACggUjSAAAAGogkDQAAoHFE/gfhA4OMAuJiyAAAAABJRU5ErkJggg==;" parent="1" vertex="1">
          <mxGeometry x="160" y="80" width="617" height="56" as="geometry" />
        </mxCell>
        <mxCell id="-4S_704-1h1x6RabV06D-19" style="edgeStyle=orthogonalEdgeStyle;rounded=0;orthogonalLoop=1;jettySize=auto;html=1;exitX=0;exitY=0.75;exitDx=0;exitDy=0;entryX=0;entryY=0.5;entryDx=0;entryDy=0;" parent="1" source="-4S_704-1h1x6RabV06D-3" target="-4S_704-1h1x6RabV06D-2" edge="1">
          <mxGeometry relative="1" as="geometry">
            <mxPoint x="80" y="110" as="targetPoint" />
          </mxGeometry>
        </mxCell>
        <mxCell id="-4S_704-1h1x6RabV06D-3" value="" style="shape=image;verticalLabelPosition=bottom;labelBackgroundColor=default;verticalAlign=top;aspect=fixed;imageAspect=0;image=data:image/png,iVBORw0KGgoAAAANSUhEUgAAAJQAAAA4CAYAAAAb4tFBAAAAAXNSR0IArs4c6QAAAARnQU1BAACxjwv8YQUAAAAJcEhZcwAAEnQAABJ0Ad5mH3gAAAMDSURBVHhe7dw/UuMwGIfhL3sRmoRih5bGPkGoKKBOZ5ekoduSbhunDF3apUmz9gngBMwW2EU4ifazLWeJEWsniCFM3mfGk0iR/8zwG0lOLAZ3d3fm4uJCgLc8Pz/L0dGRLf1fFajT01NbBN6HHgqdtumhvtlXwAsCBa8IFLwiUPCKQMErr4EqZqEMBrFktozDs589VDaTeEYsv6K9DFS2nMrtdElP9wXtZaDGcyPGzGVsy/g63IEqMonDcj40sFuoQ1BhP2wUksX/2oRxJrn9pJHF+pnWF1ksYXOsMJbqUIUOa2GrzqrmYuFMz1CrjlOWX+5TXhNd2P4pf3rZlJskECNRou9sTRoZbWqi1FaoNNI2EpgkzU2e65ZEJtA2IpFpmtVtxARBYtKyTZ6aqGwTBFqn7WxddT5tsz5fEmyU18fRa6r3sdf44lz4OKvVyr7r5giUSx2EIFn/iVvlWhWEdqBeBKPUDkupvZ8zUK19tFL30UBvXgI+wDaBenMOVeid1izWoUqHvjA8k1tbXyme5FFfTo6HdRmwHIEqZKbzlNHNH5Hza1ks7uX+PhXtkYBOrwNV/JZfDzoA/ZjL1XgoQ1cnNDyWE315fGpP1HHoXgdqHRZ7C1VojxXfbA55ekN/rl3Ww3Qis6zQJrrpndxkqknEQXMMeWOZ6yxYpmf17fnkp8j1QvSuasN4nktSNRvJaDSSyfJcFu1GODg8sYlOPLGJT0Og4BWBglcECl5Vk/LLy0tbBNxWq5V993/c5aFT+fWRMeXv890Y8uAVgYJXBApeESh4RaDg1c6BYg0eXNyBYl0cduQMFOvisCtnoFgXh105A9VeF1c+Z961Bg8o9ZqUZ/FIzm5FkjSXPM9l8X0pNzzuC4cegcpkqWEKkoVdtKDb1ZzHfeHUHSjW4GELvYY8oK/uQLEGD1vo0UOxBg/99RryWIOHvnhiE53e9cRm8+XlNhvQeBWoMonbbkCj1xwK6ItAwSvW5aEX1uXBG/77Cj4NgYJXBApeESh4RaDgkchfgIo93PaQbY0AAAAASUVORK5CYII=;" parent="1" vertex="1">
          <mxGeometry x="160" y="170" width="148" height="56" as="geometry" />
        </mxCell>
        <mxCell id="-4S_704-1h1x6RabV06D-20" style="edgeStyle=orthogonalEdgeStyle;rounded=0;orthogonalLoop=1;jettySize=auto;html=1;exitX=0;exitY=0.75;exitDx=0;exitDy=0;entryX=0;entryY=0.5;entryDx=0;entryDy=0;" parent="1" source="-4S_704-1h1x6RabV06D-4" target="-4S_704-1h1x6RabV06D-2" edge="1">
          <mxGeometry relative="1" as="geometry">
            <Array as="points">
              <mxPoint x="30" y="311" />
              <mxPoint x="30" y="108" />
            </Array>
          </mxGeometry>
        </mxCell>
        <mxCell id="-4S_704-1h1x6RabV06D-4" value="" style="shape=image;verticalLabelPosition=bottom;labelBackgroundColor=default;verticalAlign=top;aspect=fixed;imageAspect=0;image=data:image/png,iVBORw0KGgoAAAANSUhEUgAAA6YAAAA3CAYAAAAfUFeQAAAAAXNSR0IArs4c6QAAAARnQU1BAACxjwv8YQUAAAAJcEhZcwAAEnQAABJ0Ad5mH3gAAAvbSURBVHhe7d27UuM8G8DxJ9+N0CQU79C+TXIFyTZbAC1dXJKGjpKOJimTjpZtaNYuqOEKPC8z2MVyB9yBP0lWDj7FyoHNgf9vxgO2ZSWRHslW4kPj8/MzeX5+lvPzcwGqfHx8yMnJiZ0DDg8xvB+oh+NEvW6G8gMOE213M/ny+5/9CwAAAADATjAwBQAAAADsFANTAAAAAMBONcIwTN7e3uTff/+1iwAAAAAA+Hu4+RGccHE3Dh0xvB+oh+NEvW6G8gMOE213M/ny41ReAAAAAMBOMTAFAAAAAOwUA1MAAAAAwE4xMAUAAAAA7BQDUwAAAADATm0wMI1l1GlIwwvsPAAAAAAAq9vuL6bBSLwRA1UAAAAAgLutDkyDp4FMBk+y9aFp4Emj4W0/XwAAAADAzm11YNodJ5IkY+naeQAAAAAA6iwdmMYjTzqNhjTs1PECie26MvGoI43OKJMmm0dHvFE2h8BTy/U28Ug8fc3qNJ39edSs703UfxPp6XW5/AEAAAAAh61yYKoHma1BKGd+JFGkJ1/OJj25yg0sl0nzELlV2ydJIpF/KeGgNRt0zrwO5Ope5OdD+lrD9qtMeumpu92xWub31X998fX7eLiWptkIAAAAAHAMKgamgdwPXqU9fJBxtynNpp66MlaDy5dr12FhmkffH0tXba81u9fyMGzL5C73q2d7KA/ja5NOv9b1rR6IhvJuEqll+o9m1tv/AQAAAABHoXxgGr+rYaHI2ekGo0Cbx6Q3PT03nVpqsAoAAAAAwNRWb35Upu/rGyLlphdOxwUAAAAApMoHps1TOVN/wvRc2gpNOdWJqlTmEUvsfpkqAAAAAODIVfxi2pWbYVteB1fiBXogqadAPH06bv7OReGTBKUjzXkeI5WHYfJoSet+nSeShvJu3oudBQAAAAAchcpTeZvXLxINzyTsqYFkS089Cfu+ROP5U0q7N0Pp68e4tNTgs2TAOM3jUeVhrjEtycNJ90aGfZGBfi9XPC4GAAAAAI5J4/PzM3l+fpbz83O7CCj6+PiQk5MTOwccHmJ4P1APx4l63QzlBxwm2u5m8uX35Tc/AgAAAABgGQamAAAAAICdYmAKAAAAANgpBqYAAAAAgJ1qhGGYvL29ycXFhV0EAAAAAMDX+vPnj/2Pu/LCkX7cT5Ikdg44PMTwfqAejhP1uhnKDzhMtN3N5MuPU3kBAAAAADvFwBQAAAAAsFMMTAEAAAAAO8XAFAAAAACwUwxMAQAAAAA7tdHANB51pNHwJLDzgJtYRp2GNLx1IieWYORJp6G2t1Ono2IwtquNTfIHAOySy7HFdzj+CLxt7MfYHwKHYbtt1fQfnZHK9bBUD0yDkXgjOjLsE91oW9IbhHI29CWKIjX5cikT6bUasrQtE88AAADA3qocmAZPA5kMnvg1FPsjuJfBq0jff5HxdVeazaaaunL9EsmwLTK5q/5m6MviOfA4awAAAAApjg3XVjkw7Y4TSZKxdO08sFuxjO4mIu2h3BSCsik/bofSP7OzJYhn4NjY054O8FQlAABQVDkwNddvZHb4sQSevqZDHQjo6/q8QCK7Bt/TLEbikXi58+LjzHWgHXMabd3BY3GbxS0i+e9VjUsvf6hhaFGzey3j8XXpOq0Yz3Wvp7/wUssXP980nf2YZn1PDZb1qcR6HQfIB6eujo04UOvmfV9lrKiN4mAhpjqemGSLeU+XLaiLw2/BoYzTNNP1emrJ42Ukycu83VOWe8alXp2OLerTrLY/qomt/H0L6tZ/sXy/UnxvdWWc47CNU9+oZMs2rZv8q9Mu8Z0sOzbcVluoOuYo7ZdWasP6PWXb8Hp9wQbt/PPzM/n161eSFw3bibSHSWTn/b4kaliQDP0oiSI1DftJW/SyfuLbNDheKlTsf3NpjLSTdruv4sKfxYpZvhgr/tDESns4S5EM2yp2+vPISbdRsaTSm3m7zSxJlM9jmYr8F+K59vWUNObVa/aHJp3+LCbfWczrz9af5WOzwp4qi2GXOk5jaSF2TJ1XxIqKsTQfP+mr+Wn7mC4zea0Yh8emWA8uZZymaasFmbL75mW5T9arV7djC5c0aTxU7Y+WxcX0fU63idLXm8VW3frtKJbf/HObuNefu9CHuLed+f5wlXpZ1jeq7UzZttV2tl5sv7e4n6Zd4tgV265qC6ZNpXFvQ3+lvqhO2geptqfSlvcNZW3Ypilpw9XH66v0Beu183z5OQ5Mi52NNnsjdh7Hq9jwqurfJVbyjS/dJh/AmRjc6sDU4fWUtOHP5w3T2ahGPE9EGzgQZTHsVMcFxRgvyycfT1q2HbjF4bEpq4eiXBnb9p8pq0w9fc+y3Cdr1WthPlXWTpanKc6nXOLC5p9PNFO3fjsq+6fim6854MuXl8vBbrGM6/vG4jZFaZriR6Bd4niU9n2FY0OXtrDiwDSfzrzm/DXWbcP5vtQ1n3Xbeb783B4XE79LqP6cnVadKAlYFbHSPNUXgIbyXnqaQbrNpDc9BSCdWvpOR1PNU1lyCelqXF4PWBAHIxl5nnQ6HTX1RJ+kszHiMGNpGTd/yKU6Gg+f5qcYxe+q9NqX8kN3NZTl3lparxX7iwyXNFWc4qIrY3XkpRKpdeo9eur9Zs6Hq1v/l5XsC9fpnzbu01aoO9olvr112kI8Wjg1Vk0LpwSX6v4U1VO5q2jDS4/Xy2y5nbsNTIG/oO/rGxTlptn1Yy35Rx2Yvj7+Lm2Y6TPtOoXr95ZZ/nqAlt5gp3X3n8jPG3l4eJGXF3+1zr8GcehSxk25vk0HB63pTu/xTPyHbDlRlvvk69uOq9q46I7lRS2Lolu5lEd57LWyB4F163dmnTL++/VCuwRSK7WF5rU8mMci2im3v9s322rnbgNT+w1d6Dx8xrdVESvm1w21Jv1ipinmC5mpyviKJZ4tsgemrwO5z11wrdP9fnyd/3qSzz/P6fUAJf4tOrT6t2O57urHE9nl20AcppzKOBCvF8pltLjDG4tKnqIs949LvVbW2wKXNFUc4yK2M+bxY2M1UNO/kL4+ym+bpm79XxU8zX/ddGo7uf3htvq0jeqOdolvxqktFI9d08ciTie7sIrpG9ryT8vO16l4T9njdQdbbueOv5h25acZE1yZU1h0J63vBHXF6Rgo6MrNsJ2LlZGJlfbwJvu4lvBJAhO12W0MfdfARktai6PQ7k36vNKevWuYzlulG3lX6fNNb3PfzMzyz3N8PWehvJvPamdxPGYdro0LVckj7271095KbTsOD5RTGeszJl5l0MqeKtTpjOxdCCnLveNUry7HFpscf7jERSD3rZZ0RipfMx9LkDkwq1v/xSa99E63+nPr97742LRV+qfp/nBrfdq8bL1pvZiyVW1zdrtO2iW+s8VjwxXaQuWxa87kTrxC3zD9gcZF9j2lfWvF8fpSW27nrnflNRfl9vUFsWImc5e43AWyOF66zvOW1f/8rol6aif94fSOhlY0TPrmrl7zm8xkt7Exlq5aECV+Pp2566ldPZXLv+wi7LrXq7/gW1toFw4XeWN3dB3lOdWxmp/Fib7jp70jXd2NQspjrthm3OL+eJTVQ30Z25s0qLLxfTtNy22hjL9bWe6T9epVczm2qE9T1ramauNitr+wk3mvdp1Wt34LdL55pl8xnzVbjpn9nUsZ5/e3a/Zpervs/s+hbBXaJY6ZjumihT5rlX1UybFxGZe+Yb02XDxe32ZfUEanXdTQA9Pn52c5Pz9X64By+tcJFS92Djg8xPB+WKce9DXkrcdLiXLXq1Qtx99H+9oM5Qccpl20Xf1s0Z74kozdf9fcV/nyKz2VVydadQIA4CuYuwSa68sXTm+KA7nXF8udnTIoBQDgCJQOTPXIddUJAIAv0R1L5PclvGvNvxBt3Ylc+hIdwTfGAABAhFN54UQfCPIFBA4ZMbwfqIfjRL1uhvIDDhNtdzP58uM5pgAAAACAnWqEYZi8vb3JxcWFXQQAAAAAwNf68+eP/U8NTDmVFy4+Pj7k5OTEzgGHhxjeD9TDcaJeN0P5AYeJtruZfPlxKi8AAAAAYIdE/g90gRXgbqJSQQAAAABJRU5ErkJggg==;" parent="1" vertex="1">
          <mxGeometry x="160" y="270" width="934" height="55" as="geometry" />
        </mxCell>
        <mxCell id="-4S_704-1h1x6RabV06D-21" style="edgeStyle=orthogonalEdgeStyle;rounded=0;orthogonalLoop=1;jettySize=auto;html=1;exitX=0;exitY=0.75;exitDx=0;exitDy=0;entryX=0;entryY=0.5;entryDx=0;entryDy=0;" parent="1" source="-4S_704-1h1x6RabV06D-5" target="-4S_704-1h1x6RabV06D-4" edge="1">
          <mxGeometry relative="1" as="geometry">
            <Array as="points">
              <mxPoint x="120" y="410" />
              <mxPoint x="120" y="298" />
            </Array>
          </mxGeometry>
        </mxCell>
        <mxCell id="-4S_704-1h1x6RabV06D-5" value="" style="shape=image;verticalLabelPosition=bottom;labelBackgroundColor=default;verticalAlign=top;aspect=fixed;imageAspect=0;image=data:image/png,iVBORw0KGgoAAAANSUhEUgAAAJAAAAA9CAYAAABCxOCIAAAAAXNSR0IArs4c6QAAAARnQU1BAACxjwv8YQUAAAAJcEhZcwAAEnQAABJ0Ad5mH3gAAAT3SURBVHhe7ZyxbupIFIYP+yLRSjhFRJvG7leyqxRRWjpcgnRFlzLd3ZVMCZ3bpKFZW7up4QmsGylYd8kb5A28Z8ZjwGQMzh1IIPyfNMHjsccz43/OmXE8bry+vmaPj490fX1NAFTx8vJCZ2dnKrbkN/ULwC8BAQEjICBgBAQEjGgkSZI9PT3R5eWl2gVAfTALA7XALAzsBQgIGAEBASMgIGAEBASMMBBQSgOnQQ0/VvHPIx041Gg0SF+UmHxOcwapih8qh9Oe72G3FigekD/4vAYYeT7LBXwkOxVQPO7RqDfe/U2MfbYwW8Rh22TTiLwj68HHzk4F5A4zyrIhuSr+sdxQGHXYDN3RwXurL8RGAaUDnxweP4jxhQgO9+5N90aORZxB6ZhyHg67uHIOsc/7xTkpuz8xBiiOU4ZEpnsj3mLrItLW8i/h9imwp9RrbzhG8bZc5bot6lKUSxVIlke0A1vFxfmOn4t2tQ7FvoKUx2JOPlZbXnNbKQ+fSgGJBrR6CbWiGc1mIkTUGnnUfkel8zyIbvn8LMtoFt1Q0rPeDnanPWp/J7oK82sJERTjGXfI+4RloQ5Fohxhl5ryJB1N6oYB2SK/DeUs6nZT1E2WS1e3e2q3f9DFbUSz4YpdFe1wdyHrJdqlMx2xaB1y+Ni8DhEFLPilkHmA3PZo1LqhGbdD3hYtdveatjg2xP/CHh4euE6rRBnfsswOuLqVzLLApow6kYrznsDOyA44RZDnsZIsKR/DR3U4j5W4JOpkPKjJFpeX8Q7nqGc9TxlfnL9eF33d8nOW11iPF+jKu359QdX5S9bL8bY9D4n5fK62yugtUPpMCf+0zqv7+lZUHiOvMNl5sHrTPH2PNLth7sq+a7p3Rd2a5y3+m9DzHr1KyrPUgc+uj12Z47BFUvuPmZ0OonVwh5ImuxQmm9zQLmBXdsv9m13NYbiI/BmPdfeD/XSfwnBCkwm7PpV6zOgF1Dwn2R83dscmyU5bRWUeKQ9M1eY+cYckJ2XeWk+vKFf6LO0SmRjdStK/6Z4Nb+d2SF23SU3tNba054FSYYFc6rNDnvba3IPFDRchf6L75klpMqZYq4hlHgPOQyLzsMjSuZatsHuRZVHRGrhDXS8vl0vWjV1Lm12rHfT38whiIVpVb77mwL/Tu7DK9jxMKl1YszuhWdCixOMbbongUdIpz0bcfsA3iKfXFt8MTZ2LPO45DzkG0uRRCzE9ZyX0RFlqTNGX5GJZZ7Vcsm7ePbWCiMLuvhyrS0NhDnmmJ9tBTDn7YpymkhXb2vMQwRuJoBZ4IxHsBQgIGAEBASMgIGBE4/dvf2Ri47+//pU7AKhiPp+rrSULAf388x+5AwAd4vGD+C/COnBhwAgICBgBAQEjICBgBAQEjDASkHxveNtqCfClqRbQJ6/xAsdBpYD2tsYLfCkqBfS5a7zAsVApoMW6KBXnPRT7y3VNYo3YTKWA06X2IDr2LRLr+wK1liq8GNPdB6ywAIdNTQHFNGbx2EGoXgrn0B1SqHldFJwW9QS0i3Vi4EtS24UBoKOegGqtEwOnSE0L5NJVR3wDYXUtlS/XUoHTprYLE1/JWKzNsixqj68wiAZ4IxHU411vJBYPC98TwGmiFVDpSxo1AzhNao+BANABAQEjsC4M1Ea7Lgxf5wB1wNc5wF6AgIAREBAwAgICRkBAwAgICBhA9D8WMgvZAqwqNQAAAABJRU5ErkJggg==;" parent="1" vertex="1">
          <mxGeometry x="160" y="364" width="144" height="61" as="geometry" />
        </mxCell>
        <mxCell id="-4S_704-1h1x6RabV06D-22" style="edgeStyle=orthogonalEdgeStyle;rounded=0;orthogonalLoop=1;jettySize=auto;html=1;exitX=0;exitY=0.75;exitDx=0;exitDy=0;entryX=0;entryY=0.5;entryDx=0;entryDy=0;" parent="1" source="-4S_704-1h1x6RabV06D-6" target="-4S_704-1h1x6RabV06D-4" edge="1">
          <mxGeometry relative="1" as="geometry">
            <mxPoint x="80" y="100" as="targetPoint" />
            <Array as="points">
              <mxPoint x="100" y="491" />
              <mxPoint x="100" y="298" />
            </Array>
          </mxGeometry>
        </mxCell>
        <mxCell id="-4S_704-1h1x6RabV06D-6" value="" style="shape=image;verticalLabelPosition=bottom;labelBackgroundColor=default;verticalAlign=top;aspect=fixed;imageAspect=0;image=data:image/png,iVBORw0KGgoAAAANSUhEUgAAAT4AAAA3CAYAAACVQCZMAAAAAXNSR0IArs4c6QAAAARnQU1BAACxjwv8YQUAAAAJcEhZcwAAEnQAABJ0Ad5mH3gAAAXhSURBVHhe7d2xdqJMFAfw6/ciNrLFnrRp4AlkmxTJtnZQamO3Zbo0UGpnmzQ2C09gnsCzRaDQJ+G7MwwKCIJZkg3O/3cOJw4wA56dvZkBwh28vLwk9/f3BFBnv9/TcDhUJYD+KfdhGfhub29VEQDg+mHEB40w4oO+K/fh/9RPAABtIPABgHYQ+ABAOwh8AKAdBD4A0E6vAl/oDmhg+RSrMgDAe2DEBwDaQeCrE7o0GLgUqiIAXA8EPgDQTmXgk9fS3JBiHvVYA/4sFsslX1xci31yrdK6nNjP1RlY5JZ2iH0rvU6XtcPHyRTrDsgS56C2FeTPQRwjPyyLQ97Gxzi0c3oOh2uFNe3I7faSPy3JFttwXRHguog/WSsLHEp4U2KaXhJEURJFQeJwmUyT1zmHdZ4p1nlJpOpFnsn10u2yHHiJyfWcQBYluY9qxwuCUl2T9xVtH49petkeufNyjuclz0EcU+4RpWXefmg3cGSd/DmctqPq5dpJ62XfVa7U1m63U58A+qnch+sDXy6gCWnAqlh3CBZpoMoHGKFcr1gncxrkqlSdF6/k9sykvmpNAG1qJwt8qqgzBD7ou3If7u4aX/xGW/6xtLOpY7oYs9d0+zmq7s23UVr+S3Hok+/ytJmnvJZl84QVAOCo85sbPOIjDqjFZTOlbkJak5h8i4Pt4x+iuzmtVhvabALiER8AwEF3gW/0jW74x/atfBsgprjpzkBt3QvFv+mZB5jOrwVNxyMafU60BYCe6XDEN6a5Z9LrbEJ+qAKYuMM6MMh4anoa7ljX5boxR8pY1uXpcuGWbYNDAFV1uB3fffyLqe6W3uT5qCIAXIVOp7qj6YYi74aebSO9xmfYtHUCihZjtUe9rO6W6xqGWNrXPRrTIuCJ7cxOjz95IpqviGPq5cZz8mRTfC4TPM4CcE3wBmZohDcwQ9/hDcwAoD0EPgDQDgIfAGgHgQ8AtCNvbjw8PKgiAMB12u126hPu6kIL4tEg8Rc4AH1V7sOY6gKAdhD4AEA7CHwAoB0EPgDQDgIfAGjn3YFP5s5AFjL40mIK3WL+Fcsv5nFBrmY9VQe+0CeXOwhAn4WuQSJnlBNEFEW8eDfyzT3GJa86g6tUGfjC9YyWszVGc9BjIa056JneihbypbS8TBe0Eu8oW6Jv664y8I0X4pXxC7rkTXgAfSDe+4i+DZWB75D7VpXL10pEvttIbQE9NeUmltrmOOZK3edwHtOdQ8e3equ1tc59D3Z6rIprhRXfI3sZOXwxVeklyykh0zy0ZuJlOW89R+bLRfpFPXA3UZ+O0j5xPjexLLfNccz9LcuVLNKBdpHDWZ6DI/bLjiFyOWctpE6/RzlXc3asXP9XxzpNWWomDp+A3KfinOHfEf/GeS0CX3XO2+r8uHCNyp1GSP+jl/5Td5TjuPyLVyj2t7SdphzOR2mwcmRAE0HuWLH5e7Tr/7Kd8glVBHr4N8p9uPlxlo5z3oJePiTH8cU5nEc0Gk9psUmIAxa9Lh9Pps21avr/6JtMa0VnEwOO75Da9ItqDnwA7/LxOY55JCV+jReXLIdzHFMYFq/DCaMfP4lDH/3BRWqtNQe+rnLegl4+MsdxmxzO0RPZtk2NmU2b1BwrfpPjQDo7EQrXPMI16buhyvBltBjxHe+OiXy5Mudt6NKkdloBwDrPcZzXIoezSA8qHtmz1R1Y2W99sowZvZoezVs/z1I8VtaO6P+mNy8+FsNTaFfc2RX7iPN5FA8S/qQfuEr05bSa6o4X0THHrGHQZH2XPggKUKvDHMcVmnM4j2i6iUicwlb8tYbI1WzPeAjqUZRNh1vKHytt55luvIBW01Irzi+af1/TROWFXvLEPlhddiz4HHgDMzQSgUVcP4N64jk+mwJKLkqAD5+l3IdPRnzyt+eFCwBAn5wEvsIdspYLAECftLrGBwDnyb9vxzS3NxD4AEA7yKsLAFpAXl24yH6/p+FwqEoA/VPuw5jqAoB2EPgAQDsIfACgHQQ+ANAM0f8CwbPZ0xsExAAAAABJRU5ErkJggg==;" parent="1" vertex="1">
          <mxGeometry x="160" y="450" width="318" height="55" as="geometry" />
        </mxCell>
        <mxCell id="-4S_704-1h1x6RabV06D-23" style="edgeStyle=orthogonalEdgeStyle;rounded=0;orthogonalLoop=1;jettySize=auto;html=1;entryX=0.081;entryY=0.897;entryDx=0;entryDy=0;entryPerimeter=0;" parent="1" target="-4S_704-1h1x6RabV06D-6" edge="1">
          <mxGeometry relative="1" as="geometry">
            <mxPoint x="1060" y="500" as="targetPoint" />
            <Array as="points">
              <mxPoint x="186" y="520" />
            </Array>
            <mxPoint x="1030" y="540" as="sourcePoint" />
          </mxGeometry>
        </mxCell>
        <mxCell id="-4S_704-1h1x6RabV06D-24" style="edgeStyle=orthogonalEdgeStyle;rounded=0;orthogonalLoop=1;jettySize=auto;html=1;exitX=0.5;exitY=0;exitDx=0;exitDy=0;entryX=0;entryY=0.5;entryDx=0;entryDy=0;" parent="1" source="gHii8LLMTPezBW0MrbkV-6" target="-4S_704-1h1x6RabV06D-3" edge="1">
          <mxGeometry relative="1" as="geometry">
            <Array as="points">
              <mxPoint x="730" y="600" />
              <mxPoint x="60" y="600" />
              <mxPoint x="60" y="198" />
            </Array>
          </mxGeometry>
        </mxCell>
        <mxCell id="-4S_704-1h1x6RabV06D-8" value="" style="shape=image;verticalLabelPosition=bottom;labelBackgroundColor=default;verticalAlign=top;aspect=fixed;imageAspect=0;image=data:image/png,iVBORw0KGgoAAAANSUhEUgAAAhUAAAA3CAYAAAC7H7hqAAAAAXNSR0IArs4c6QAAAARnQU1BAACxjwv8YQUAAAAJcEhZcwAAEnQAABJ0Ad5mH3gAAAopSURBVHhe7d2xdqpKGwbg1/9G0kCKvWx3g1egaVIktnZQapMuZbo0UGpnaxqbQJFar8DsrBUodu5g3wH/zDAoqBCIZJ2o77MO+yiMg8qX4XNm0Na/f/9iCC8vL7i5uZE3ifb6+PjAxcWFvkd0fBjDPwOPw2mSx7X1+voaC3h7e8Pv37/1JiIiIqJ62FNBlfHTBR07xvDPwONwmuRx/Z++TURERHQQJhVERETUCCYVRERE1AgmFURERNQIJhVERETUiMaTishz0Gm10Op4iPS6nyDyOmi1HAT6PhERETXrsKQi8OB42dN0gMfRBG03RDgdwtBriYiI6PQdlFQE8xEmo/nm038wxwQWfl0ZMNKMInDYQ0BERHQGaiYVEbzOZmijO44Rx2N0k41ERER0xsqTiiiAI5MIOUdCLSZm/RDxIhnaUPMUdIIROGJ7byJuLTEyk8TDW6+boFdxnsV6ToZeOk6w85h8mY4agsmXicTzkXMoNnWEekvWbj2fPTsiIiIqUpJURPAGPazaPsJY9kjECF0Ly9nz3sSgOw4R+ra4ZcH1kzkVw/U6G374+TwLmaSYoxXa8vGyfOijPelhkDnZp2X6aRm/j9UoXyZwTMhcRj0PUWb6a46H0VJvTST1APdiu3ptqh4TIv8gIiKir5C//SGXp6cn+cNiG6EbW0Bs+/q+5NuxSBpiV2QZkkgyYlhurO/ubFfUOjvOVrOfH4v0I7ZyD962v4x6Hut9VC+Te23CzuuhnL9//+pbRMeJMfwz8DicJnlci3sqjCv0RVaxmm+GFqL3lcgZ+rg65LKOyMsNb6yHRKJ3iNrRviypvKCMcdkW/67wLiuqUc+kl3keYjG3ejOIiIioupLhDwPDe/F5ftKDmZ50Z234h14qagwxVUMbevkPLz21/WRYJ7fo+SJERERUT0lSEcDprdAPsyfcMboNnHENQ15ymi7pykuo/gbV3VCgoIzqQRFbVOfEAfWImhCVPIyIiIiKlSQVJn5Z+kqOzBBBp+MhqH3iXeFdPKj8hN3FnZwIOhrAUWXlIhIbud/17MlNGS8tE3gYjJaw3Dt9aWsX1za2yjiqzEa+HkXty4T5yJmaREREX1GSVIT4I87Dlu3D9/XiqrM1eoMaX8HdvYN82KgnTtifPM4YLhC6baxkWVMuPazE/sPx5psw0jKztExvhrbrYzrcdKHIK1HW+xRlBvNrTEUSkZWtRyVMe/ZFRERE1bXklR/yxsvLC25ubtRKSV1yOesj3JpjULSeTt/HxwcuLi70PaLjwxj+GXgcTpM8roU9FeqKiuUIj+nwgBQFeJwt5aUVTCiIiIgop3j4oztWX1y1etDDA2qI4AHoc4iAiIiIdpXMqQAMkVgsFpmrP+IFxsMueymIiIhoR2lSQURERFRV6/X1NZa9EG9vb7i9vdWriYiIiOopvPqDaJucVyMTUKJjxRj+GXgcTpM8rhz+ICIiokYwqSAiIqJGMKkgIiKiRjCpICIiokYwqSAiIqJGHJxUyN8CabUc8Lc9iYjqC5zsLzF/lwiB56AjvxlZL52OaLcr/zIkUTXlSUXgwfGYLhARHa8IXsdEb7RSv+gchqFYfPQxQc9soXY+c87nBZ4TP1WaVATzESajOXshiIiOVfCI0RKwff0zC4Yhli6GixCuBUwePJF2VHc254XA2emF33nte8qcu9KkojuWv/cxBn8+jIjoGEXwHiaA5eJupyE3cHXvwm7ruxWd83mB58TPlSYVar5EJ5vFRiIxk3Mo9JicEyDUW+g8qfFgGSORB6eTjtd28l2qUSC2beJGbffyn43SceVIZP7rcd+OA1UsW3e6LiPKjRXv1k1U5vMYlsMHYt3WOMH2fLJDYljaftz2fIfP4nzdXqf7Us83xJ+lyCn6V3t/CNLoDjEeD3PbdvcjXpPeJm2fFyq1AZXsnl+C3Htc7ThUbm9KnrPa3hPJmBwiktv0682+9t0yTuZ9zxD7kO9n/ffjSMmv6ZbL09OT/A2QnNC1YpHhxqG+79uIRXjGrh/GYSgW144tyHV27OsydLpEuOhbG0lMILZsN/ZlTIjFtbIxoe+L7Wkchb6tHmNngmZdj4i3pB4/tmVsWZZYJ+rS61RdmZhUMSr3Jbar+76rYjJbN1HqsBjOB9U69vT9r8Zw2q5aon7Vrn4xzpP2OtmX64u6kpWqnOWmNZVL9pNp4/V+so9P9rP9/Mvev13Fx6Hs/FLlONRsb0qOefK45D0X/yVrc699T5n0vtqeyD+/0ybf0xpJRfIHsh2c5/SGnbvChiDTwCjqD0s0DvlQydiNpX315OMvkY+3pJ6tNmbv44ikr8VwjaSidgzrx+0GcSZpqBbn2/UqtZKKam389n6/0gbsHocq+652HHZVa292nnNRgpB93E6Z7WOVPOdq7//xk8e1+iWl0TtW4n/ty32daETlosCD5zjodDpi6UF2Gh5Mx+Sk18p0dbZgyllpRMfMuMR6qsMhcZ6t5zMFbbxxKWtY4T0/gtCshs8v39LeVNLFtcgqJnM91hE9Y7a00L86n/Nm9aSC6EuScVDz4Q9wfYfpdIHFwof4u2uM+FQgP/bkl0V+nJjo2H0tzk38soDl7FnNA9iWzEfo7J3jcZy+v735TFdlFQ/qPY2eZ1hafZxRTlEjqdAZ7+pb01U6OSpTFw3i/RjDrryUTa9vQmFMRogYpnTMgvnm0/VBcW5geC9OcssRHncmCkZ4ln+c6UmvYD/Ru+pDwLd2Ujd1fvnO9qaq7h1ca4nZc/L+Fk2SPVU1eiqSbp3laAAvkMEslsDBgF3NVGbdWKTdgeKThPPQUHdkF3eutY5JRc78bpkwd1tQoi8yoEYA5KdP3fbJb6dstO2b9NTVDqpdlTGcuwz0wDhXJzm5C30lh96H5wyS76+4T3s78vtJ2nhPvU7LvRNbv1OV80uF49B4e7PCu9qXvrvXdhkDV33xPs4GZzf0IdUa/uiOQ7jiwI96IphNE4P5NaYyWokKdTH2VdAkY8GDR+Buqhq5JhjDBUK3jZmISVW/2cPK9hGOeSU5Nac79mGLT59J2zfAHHdYyLhuiojZ6a85BqJdNUUMT2DDn26GNg6Lc0N90ZUvHr8Sf4ey7Zb7mK3a8MMY2Sqy+1HlejP1LZzT4fefGPedX+63GorPj0OD7Y1MxtLnM9hcQptTUMa46sNaLs9u6ENqySs/5I2Xlxfc3NyolUT7yD9SOY5LdKwYwz9D1eMg53yYI5H8HNsXTsnvpjBHaPv5pO3UyeNa2FOhsryaCxER0TlTwzKPIyxh4/oMO0wLk4r17OIaCxER0dmKPDWE1ZtYsP3z/DpvDn9QZbI3iskjHTPG8M/A43Ca5HGtNVGTiIiIqEjr9fVVJIwx3t7ecHt7q1cTERER1cPhD6rs4+MDFxcX+h7R8WEM/ww8DqdJHlcOfxAREVEjmFQQERFRI5hUEBERUSOYVBAREVEDgP8DUiykjwzxgSUAAAAASUVORK5CYII=;" parent="1" vertex="1">
          <mxGeometry x="160" y="620" width="533" height="55" as="geometry" />
        </mxCell>
        <mxCell id="-4S_704-1h1x6RabV06D-33" style="edgeStyle=orthogonalEdgeStyle;rounded=0;orthogonalLoop=1;jettySize=auto;html=1;exitX=0;exitY=0.75;exitDx=0;exitDy=0;entryX=0;entryY=0.75;entryDx=0;entryDy=0;" parent="1" source="-4S_704-1h1x6RabV06D-11" target="-4S_704-1h1x6RabV06D-4" edge="1">
          <mxGeometry relative="1" as="geometry">
            <mxPoint x="40" y="310" as="targetPoint" />
            <Array as="points">
              <mxPoint x="166" y="1000" />
              <mxPoint x="-30" y="1000" />
              <mxPoint x="-30" y="311" />
            </Array>
          </mxGeometry>
        </mxCell>
        <mxCell id="-4S_704-1h1x6RabV06D-34" style="edgeStyle=orthogonalEdgeStyle;rounded=0;orthogonalLoop=1;jettySize=auto;html=1;exitX=0.5;exitY=1;exitDx=0;exitDy=0;entryX=0;entryY=0.5;entryDx=0;entryDy=0;" parent="1" source="-4S_704-1h1x6RabV06D-11" target="-4S_704-1h1x6RabV06D-8" edge="1">
          <mxGeometry relative="1" as="geometry">
            <mxPoint x="-100" y="650" as="targetPoint" />
            <Array as="points">
              <mxPoint x="370" y="1086" />
              <mxPoint x="370" y="1020" />
              <mxPoint x="-190" y="1020" />
              <mxPoint x="-190" y="648" />
            </Array>
          </mxGeometry>
        </mxCell>
        <mxCell id="-4S_704-1h1x6RabV06D-11" value="" style="shape=image;verticalLabelPosition=bottom;labelBackgroundColor=default;verticalAlign=top;aspect=fixed;imageAspect=0;image=data:image/png,iVBORw0KGgoAAAANSUhEUgAAAaQAAAA4CAYAAACyn4y5AAAAAXNSR0IArs4c6QAAAARnQU1BAACxjwv8YQUAAAAJcEhZcwAAEnQAABJ0Ad5mH3gAAAgCSURBVHhe7d2xdqLKH8Dxn/8XSSMp7rHdBp9At7nFJm06LGOz3ZbbpYFSu9u6TZqLxdbmCTjXc4JF8gb7BvxnYFBBMJMYI5jv5xw2AcZxcH7yg4ENnT9//iS/f/+Wb9++CVDn+flZLi4uzBzQPsRwM+zrh/+ZnwAAnBQJCQDQCCQkAEAjdKIoSpbLpXz58sUsAgDg43FTA6xwQRhtRww3Azc1AAAaj4QEAGgEEhIAoBFISACARiAhAQAagYQEAGgEEhIAoBFISACARiAhAQAaoSYhrSTod6Qzmpv5zCroS6czkvXS1VxGulzHTH21bmXWGatgJP18facvo6BUAAAA5YAzJJW0boYy7YUSJ4kkSSxhbyrDm0CtMSVUAnPGIj/iWK1PJA6vJRo7UspzAAAckpBi+e9BxFW/ddP5rgwmKjEtbs38XO7GD+KFExl0TYnBrfzjuzL9uUlaAABoBySkgUxCT2Q6TIfi+qNAgu3xutWjROrHdLg1pKcmRyUpAADKDrupYTCRhR6Ki3/ItcxkNnSk0y+e/XihHs4rTeuzKAAAMgclpNUqSz3d7kBuJwtZ6DOmh5n8qxd3L6WnfkSP5cG5lXqd+RUAAKMmIXXlUmeT6c90GE4nnnkwkpvCcNtc7hxH+oFan86rMo96kK4nl+npz0C++648jG82Q3n6rryOI84ddzUAAIpqz5AGk1A890HGQ5VAnBu5l+/ZGdDaQCaxL72ZWp9eH3JkOOuJH0/Umkz3diGx38uG8nQZZyiRF0o8yUsAAJDhibGwwtM20XbEcDPwxFgAQOORkAAAjUBCAgA0AgkJANAInSiKkuVyKVdXV2YRAADH8/T0ZH4r4i47WNG37eu/sgG0FTHcDPv6gSE7AEAjkJAAAI1AQgIANAIJCQDQCCQkAEAjHJSQ9CPKO52RHPK3u1fBSPr6D6+WnqNkZyVBX72WZ6I31uljZNd713eI9/h8gHNRn5DmgYyCY39N9GPOp9LzY4n/eaeH9n1Iu5FqQ4zstPEIMYfzwj7kZGoT0vx+LNPx/XGP3Ob3MhVX/vrale477RmO1u75iCPZkjbEyE4bq+qjbz+vir7/kLhGpdqENJjox41vnm3UFm1tdxs187M2w7hmOI54wGsRM6dTm5DSse3CGPtKHUzo8W71ZVdTfzSX2Kypsx6rT6d+ehqc1zcfqWXDqfrtQcbOZgdSVqwje9994/677a5qR7GGtC36NSt1qq53Znk5c4i0aetUhnpdTVs/m0bEiH4K8brP9OTI7DqWZJENx223saq+wLJvbeJw37Zk7D6fl+IV76Pue12O67Sc7m91NrXul/5I0m7Z3mfky7bY92X19fC0LdtncOV4V++ZP5A71+r40X866NevX0lZ7LuJuH4Sm/nQk0TETfwwTuJYTb6XuKKXeUloymxLX79dPvTT8q6f16iXeVtlzOIteR1eXkccJl6pDt9VbfA2LSi3O6tDtdG8Qd6OrZeYbVP1en5aTr9XWu962/K2ZvWYqj4V/fmUnT5Gsn5yVWeuX1HV/+v5qvryZfV9m7ezPg43Zeq3xe7zyerJ2pLOV8Qr3mY3hnU/7fZ9OYbW+we1LCuX9b+4rlqWvzbM9hnl2LPuy919mbauI5tblzE1Zm1783ueRtW+JGeZkHa/gFrxw9pmWT7fORSLGdV1FL2UkLI6yp1RLKObUezUVLlteeCa2c/m5YR0ghiJK75spfLlvq6sb2/f2sShzbbYl3kpXvE2lTvCir4vf95V+4eqPjmsL20SkomhcqVr7YiffQnJ7rbv1aNE6kfv0vKqck357mVP/RvJo80Z5Gvfs4qpYzrcOsVVkzN+yNbj/ZwiRrpf5VplpOh+MzS2elS1utfy9YCwKbDZLptteUU9xOsZOEpfDmSisqOqVNXVl/4okGB7vO4M4scuIbWcOmLQKbk4mWsMaLOu3P7IvqBO/uWb9SRs+e3cxOv5ePe+HExkoeqI4x9yLTOZDZ3C9S6tzfFjl5C6l5Ie61kdtio15dOjV7XG6iDa6j27kh6E1qmtYyUry02BpVPEiMxlNIzkOt7+4k1k8J7fPJvtstmWA+ohXlvoSH25Mi/udgdyO1nIQp8xPczkX734DOLH8gxpIH/r7R7fpKeI+kPRd5zc1J4KDuS775bKB2l51/9ueTvlpo5RXoe+w0QfCZfuRJHoXuaVn3ixHam0Dkecu7f8L4NIHtO2mFlsOUWMOPKXa+6YM2dIeuqrI8a8u+3V9a1NHNpsi83n897xCjvH+F6/ti/NwfX05zo+5kE5PuZy5zjSD9T6dF6VKRzAnUH82N5ll1508/QFNkmn9M6mwgW3XZu7iPTkJp6/uRsqte+CtVGsw7yvWZeK/cTTFwNNPVUX8F6qw+qmBrV2vf0NukD4UfR2l50+RjYXecPQTHl9pl07bays7+W+fTEOlRe3Zft98joqPh+b98Lr6c9y127fl2PmbTc1ZF7Xlyqe032ZnnT8qJLlmy7W+zszud7Od6Pp8aPbVIcnxsKKPvNQ8WLmmkH/Hw1ndi1xaXy8bjk+tybG8Ge0rx8qE5J+Afb7bIFdDiJi5DTYob4dCakZ9vVD5TUkXZhp//TZVX0mp5ji0BPXNY1KueL5ocQVZc9hAs4ZQ3awwtEl2o4YboZXnyEBAPDROlEUJcvlUq6urswiAACO5+npyfxWxJAdrDw/P8vFxYWZA9qHGG6Gff3AkB0AoBFISACABhD5P0bCj2DC4PhgAAAAAElFTkSuQmCC;" parent="1" vertex="1">
          <mxGeometry x="165.5" y="1030" width="420" height="56" as="geometry" />
        </mxCell>
        <mxCell id="-4S_704-1h1x6RabV06D-28" style="edgeStyle=orthogonalEdgeStyle;rounded=0;orthogonalLoop=1;jettySize=auto;html=1;exitX=0;exitY=0.75;exitDx=0;exitDy=0;" parent="1" source="gHii8LLMTPezBW0MrbkV-27" target="-4S_704-1h1x6RabV06D-8" edge="1">
          <mxGeometry relative="1" as="geometry">
            <mxPoint x="174.5" y="964" as="sourcePoint" />
            <Array as="points">
              <mxPoint x="180" y="964" />
              <mxPoint x="60" y="964" />
              <mxPoint x="60" y="648" />
            </Array>
            <mxPoint x="230.22900000000004" y="740" as="targetPoint" />
          </mxGeometry>
        </mxCell>
        <mxCell id="-4S_704-1h1x6RabV06D-31" style="edgeStyle=orthogonalEdgeStyle;rounded=0;orthogonalLoop=1;jettySize=auto;html=1;entryX=0.093;entryY=0.97;entryDx=0;entryDy=0;entryPerimeter=0;exitX=0.75;exitY=0;exitDx=0;exitDy=0;" parent="1" source="gHii8LLMTPezBW0MrbkV-27" target="-4S_704-1h1x6RabV06D-4" edge="1">
          <mxGeometry relative="1" as="geometry">
            <Array as="points">
              <mxPoint x="491" y="900" />
              <mxPoint x="80" y="900" />
              <mxPoint x="80" y="350" />
              <mxPoint x="247" y="350" />
            </Array>
            <mxPoint x="408" y="910" as="sourcePoint" />
          </mxGeometry>
        </mxCell>
        <mxCell id="-4S_704-1h1x6RabV06D-32" value="" style="endArrow=none;html=1;rounded=0;" parent="1" edge="1">
          <mxGeometry width="50" height="50" relative="1" as="geometry">
            <mxPoint x="165.5" y="1080" as="sourcePoint" />
            <mxPoint x="485.5" y="1080" as="targetPoint" />
          </mxGeometry>
        </mxCell>
        <mxCell id="cYgCO2ZQ6gfYATVRZ9yF-5" style="edgeStyle=orthogonalEdgeStyle;rounded=0;orthogonalLoop=1;jettySize=auto;html=1;exitX=0.703;exitY=0.935;exitDx=0;exitDy=0;entryX=0;entryY=0.75;entryDx=0;entryDy=0;exitPerimeter=0;" parent="1" source="abu88LUIir2M0fhcls7T-1" target="cYgCO2ZQ6gfYATVRZ9yF-4" edge="1">
          <mxGeometry relative="1" as="geometry" />
        </mxCell>
        <mxCell id="abu88LUIir2M0fhcls7T-1" value="" style="shape=image;verticalLabelPosition=bottom;labelBackgroundColor=default;verticalAlign=top;aspect=fixed;imageAspect=0;image=data:image/png,iVBORw0KGgoAAAANSUhEUgAAA5sAAAA0CAYAAAAEySy2AAAAAXNSR0IArs4c6QAAAARnQU1BAACxjwv8YQUAAAAJcEhZcwAAEnQAABJ0Ad5mH3gAAA7fSURBVHhe7d09ctpOH8Dxn5+LuEEpMrT/Bk4AaVI4tO6ghCZdynRuoITOLWncRCpcmxPY8UykIr6Bb8Czu5JA6I0FhBH29zOjSSQt0mpfWSStL15fX5ei3N/fy9XVlf4vkOvl5UUuLy+jNeD8UIbrgXx4n8jXw5B+a6QFcJ7y6u7/on8BAAAAAKjMxdPT01KR5+dn+e+//6LNAAAAAADsj8doYY3HWnDuKMP1QD68T+TrYUi/NdICOE95dZfHaAEAAAAAlWOwCQAAAACoHINNAAAAAEDlGGwCAAAAACrHYBMAAAAAULnaDjaDSVsuLgbiResAAAAAgPPBnU0AAAAAQOUYbAIAAAAAKrfjYDOQSftCLtoT9T8AAAAAAPKVDzYDTwZ6cHkRL47Me74sH4bSiINMBtJe7W/LYOJlBqLbwwTiDfQ7mmGY9sATP9qzko5LeyAeI14AAAAAqKWSwWYgk+uuPDZd8ZdLWarFH7dkMf+9GijqSXyc0aP0XF98Xy1uTx5HXbmerEeBNmG8gSPdmcg4CnP7+U5+jhbRXi2My2wVF1/c5ky619xhBQAAAIA6Kh5sBr9lrsZ7za+d1V3MxqemqNGm/DYjPE9u1ICwNb6VYachjYZaOkO51QPS0U00i6xdmDs10NwIM5yaMGu+/FFx0VvCuDSkM1WDzsQdVgAAAABAfRQPNhtfpKdGd49360deg7+PasTXky96hBf8FbUmzU+bwz0zIFV7/uoPHRBmU0embl9k1jWP4bYHE5nwDC0AAAAA1FbJY7QNGf4IB3hO9J6kM2+Ke3uiu4mdqTzoR3n9H9KTucy7DhMVAQAAAEBNlQw2PRl0H6Xnh+9rmuVhKp14pNn4JOb+pLk9uWbufqo95kblAWHSgiDc32h0ZDh9kAd9p3P1SC8AAAAAoE5KBpuOfG4tZOQkZoBVS7s9iWaB7ch38+7ltXmkVQ8GA28i1+Ydze9qr32Yr3rcuBFmYMKseXLjONKeqH1mPRAvOWAFAAAAANRKyWAzmpSn74rrRsvYjApXs8A2hg/ij5vmkVZHDQad7lyaY1duh+sRoE2YztQXfehRFOb67mtqgqCOTP2xNOdqvxn0OtKdN2XsT6MBKwAAAACgTi5eX1+X+j/39/dydXVlNmrmT5bMe+KnZnwt2o737+XlRS4vL6M14PxQhuuBfHifyNfDkH5rpAVwnvLqbuGdzfDPnIzkJjnra+DJjfl7KJ8YaAIAAAAAChU/RtuZiu/25fGns35n0/kp0nPFn/LwKgAAAACgWMk7myIN/edGHhKz0S4fZDrscFcTAAAAAFCqdLAJAAAAAMA+Lp6enpb6ruXz87N8+/Yt2gwAAAAAgL1///5F/wsVzkYLpOn3dvUPE8C5ogzXA/nwPpGvhyH91kgL4Dzl1V0eowUAAAAAVI7BJgAAAACgcgw2AQAAAACVY7AJAAAAAKgcg00AAAAAQOUOHmwGk7ZcXAzEi9b3EUwG0r64kIv2RIJoWx1UcW0AgPrzBqoPGhyztQ/UOXSfos5jlra0J96OfV4gk/b2eNJ34aN6z99Jy5j2q1bx9WSg2rhJRRE6xzypwqnzVZ+/XUEmlg82vYkMVGd4XJ7cjGbSHPvi3w6lEW0FAETepC3GMXkDR7ozkb6r+jpfLeOmyKgrzlEHuMA7wnfSsxFMfsqs/0OGlSQgeXIqne9j1U/dHPTjjVY62PTuRjIb3R18klLencykJZ+/NKRBCQLw0XmDzC/zmbY4JwzqzJM7NdBsjW9l2tF9nVqGU7kdt0RmR+5jP4r3Wieo6yt8J62JrWUykN/zhfS/dqL1A23LE+pINfLSsfFFeq2Z3B2YuKWDzc50KcvlVCoqLhWJHiP6YLfSAXxc9WyLcajG8IF8BSzRDp6J4LfMF32paqyJU2rIl15LZgeONksHm+bZ941B3eY7J+2BJ360p8jqOWuztM0jEPHxzLPI+rkiWcjIKRhABp4M9OBydQxH5j1flg/rW+ll54htD2Nxbem4tAfiZSL8sayeJw8mibRR6Zsslybd1mkbpv9mwpnjqA8FXiKfVPqaYMljx9sSsnn7wTMFO8rWfW/jvZ/89+Qy7wbZlvOS+rJuE2fS1fuiNjHZFmfDDMJjpeKn642uF+nNdbW9LbHLh0PaEi39uXQbv629WeVVfC4T34587auebnStricw+VjEpj/btHu//NY2rymMY/qatl53Sf9bVG/O3T51vaj871qO66gO30kPaV+2pXl+2xGyqUNGMg76HMmicsQ+Kin4PZdF67M40bpmf22bcdqWJ2XxKcvrNPJVrRekY+NTU20+8ImC19fXpV5+/fq1TPPHraW0xks/Wnf7shRpLceuv/R9tYz7y5bobf2lG4VJMp9PhnfHJnxrHB9Rb+snwkSbV/zluKXC991VHNJx2n4OuzDbry2Mi6zi4oefScTlvVPFJfrfWphuOo/GS1enm1pMOmXSLZFnJs9lqZJyZXUclZ7hcdyl+m6m0reltqljRdvMsTL5H+4361HeJo8NxIrLsF3dT1qVvXBtt3JeUl/Cz8Vl3mwMz7Uq9zlh4nWzP7QZv3opzgebtmTzitLXuW9bEpcD098UhLFpb8K8Cs81dtd9l4l/X38+jp/ev96rhccv66uyabC9/L6dvHyNr6kfxy/Kj9366PV1h1vS/a/+TLbenJts+uVc15a6HqaLSu8Dy/GpFZalnDprW/ZtylmY3nGYaHNCeE5df6v/rhJeX7btiONdVodW8Vq1n1EcVmkR16FEnMy1VtNHJZljpApT+bWVpUt8vqI8yY9PnGbFeb2JfFXbivLV19ek0jK5rYQ+T9oOg81sImirhI7W1yzDx4Uo7yLMBW4m2GZ4m3NUHCZVgT6SvAJkCnCi4hlleWpk0zvvOCb987al8iSdJXmfA7RsGbap++svukmbYfLYlfNMfYkb/GhVy5TpTJh0XQjjnL6uutivLbHLh/3akuhz2cYk0QfZtTfp42bpTn287JuOPtmn7FMWbT7zdmzr1yaba4jCpBM/KafenJu8epG9rjAt1kmxWddzy7E5xm7l+NTy0mIzjjblJsky/Eabk7Vf+2KX5vlxz4932vb2M0/22FbHyZTJpF36S7t02XodmfhY5nUC+Rqv56RP3lisRF7dtf/TJ8FfeVT/ND9ZvjFdEN7cjlV7/ubeJ04xL6aq0Hfr28rBX3XUVk++6MPanOOAMJs6MlW5JbOuufXcHkxk8tGfod1B4Kn0Ggyk3VZp1+6Kvll/sCjfZt34kYBwcUaLcD+wjVXdt3eUcm4lfExz9V6FeWemJT3TUGJvjU+iewqjsvamIY3OUKYPS1FfQmQx+xk9qmXRV6VVXH4rZxM/q+um/13bo653vor6SKiycnxiu5Z9q3J2JIek+a7XucVb9VGtz8mHaAscqyy+VV5/wHzdl/1g8yQaMvwRdjBOnInzprinmvq4M5UHNWj3/R/Sk7nMu87Gc83IE75n5fz8I/L1u9zePsjDg7vu+CrQd/WkAakl8U4vcHzHL+fbdMw30HDgEr4zE/0oh0rt1d4EgXhe9l2cxpeeqOGm/KnbS5Z1RP+7UkVdp998e6dN89P3UUXOvSySr9vZDzajX3gfbX8SKAhv7kyqPXaDeU8G3Ufp+ckMnEon/qzNOQ4IkxaoLwxao9GR4VRlqP6ldTGX3+Uf+9jMr66qMv6YytBM+R9tr0JhvgX6ux2wnWXd3+qY5dxW57uMWwuZqwZJTzvf6n3hi+OhzJT7kUPaG/9Gut2u3JTNsGDTV6kcNT/Ox6oqv8diEz+r61br9L9ru9b1+E9H6JtNh5TjOtm17FuWs6M4JM13vc4ib9ZHhW3UwuYXtGOVxbfK6w+Vr1H7sacd7myuZ9PTj6/ohl/P2nRdeLu4I9/1I0Ib4ScmfGv8Xe214chn1aCaGagSt6jb7Uk0s5rNOezCbL82T24cR9oTtc+sB+K9RSN17lYVKn7kJ5DJ4GdFt/g389bQs3JdOOKUfqsDYjZ1P/qCr+8kRGG8SSpM5eX8Uf6ac0WrudJhwinKF/Pr7Y/VnSWLfDjUrBvOBqiOHei25KfKwdZYvpuO4oD2xgwO9OGjGRH18VU/1HZGsig4fhxms6+KPN6pPlDHYdd++a2tr8nMwhunq+7LV9Mp2ly3bf9rU2/O0Y51XdWRQaYcx3c/30u/eYrvpPs6JM1t6pCFN+yjnM/6/be/UV0tU2VZTMbnrfL6g+Sr/0cWmbZ2R7vMRqu2bM6m13cLXnxdW88OppfWsj9ez8RklL7oGr3kqs7jutESH2/j5dst51C2h7G4Nn89qYNZ9MxSufF+n/Q1p9m+dLxKe5NmmxMaaHnHyZa/aFuqvG3mbZR30T4gKa8M59V9N1POVFu0qvu6/VAlLP0y/Z7lPDxOsg1MxCcKW9oWJ7dHL/JnzlEzOt5pdmmzPR/2bUvM50y7v5mP7kaE9OfK25u8NiqkZ1BtpT6bzaetfdWqH4rTJVt+i+NwXPr8eWzaaPvrjpZM/1tQJ86IjnvWbnW9qnJ8anlpUdoOxtewpexvLWeZNmfTvu2Lti3Ny+K+7bNW7adaT5aJKvuoDak2WTvk2rLnT8uPz9a8TiBftfx0NJ9V8bKlP592oQeaaofc39/L1dWV/m9t6L9N48x74qeefS7ajuPSd5VVmYnWgPNjW4ZNGzNqintuf0A8CO+WNd2lTGsccdqS94l8PcxO6VdQ1/Xfy+uKK8s6NwAWKEvnTN+h64rqQGvdD8GGfifUkT8/7PMyr+4WPkarA596MTM6LUaryYG2bT/lAgCnpB/D8W5GspC+fKWDB94t6jrqLXxEdDVjMs6XeSf08HamcLCpR6V1WHy3L61WFCmjJf2xK35O2FMuAHAywUSuHUe6M9U+umd2NxaAPeo6zkBj+EP60YzJOF/6Ry2p4D3XWj9Gi3rRd3AZWOOcUYbrgXx4n8jXw5B+a6QFcJ7y6m7N/84mAAAAAOAcXTw9PakB6FKen5/l27dv0WYAAAAAAOz9+/cv+l+Ix2hh7eXlRS4vL6M14PxQhuuBfHifyNfDkH5rpAVwnrJ1V+T/IOYyBtenF0cAAAAASUVORK5CYII=;" parent="1" vertex="1">
          <mxGeometry x="165.5" y="540" width="923" height="52" as="geometry" />
        </mxCell>
        <mxCell id="gHii8LLMTPezBW0MrbkV-3" value="" style="endArrow=none;html=1;rounded=0;" parent="1" edge="1">
          <mxGeometry width="50" height="50" relative="1" as="geometry">
            <mxPoint x="478" y="340" as="sourcePoint" />
            <mxPoint x="570" y="270" as="targetPoint" />
          </mxGeometry>
        </mxCell>
        <mxCell id="gHii8LLMTPezBW0MrbkV-4" value="" style="endArrow=none;html=1;rounded=0;" parent="1" edge="1">
          <mxGeometry width="50" height="50" relative="1" as="geometry">
            <mxPoint x="570" y="350" as="sourcePoint" />
            <mxPoint x="478" y="275" as="targetPoint" />
          </mxGeometry>
        </mxCell>
        <mxCell id="gHii8LLMTPezBW0MrbkV-6" value="id of admin (ref to admin)" style="whiteSpace=wrap;html=1;" parent="1" vertex="1">
          <mxGeometry x="690" y="645" width="80" height="25" as="geometry" />
        </mxCell>
        <mxCell id="gHii8LLMTPezBW0MrbkV-17" value="DEFAULT CURRENT_TIMESTAMP" style="text;html=1;align=center;verticalAlign=middle;resizable=0;points=[];autosize=1;strokeColor=none;fillColor=none;" parent="1" vertex="1">
          <mxGeometry x="499.5" y="770" width="210" height="30" as="geometry" />
        </mxCell>
        <mxCell id="gHii8LLMTPezBW0MrbkV-18" value="DEFAULT CURRENT_TIMESTAMP" style="text;html=1;align=center;verticalAlign=middle;resizable=0;points=[];autosize=1;strokeColor=none;fillColor=none;" parent="1" vertex="1">
          <mxGeometry x="897" y="840" width="210" height="30" as="geometry" />
        </mxCell>
        <mxCell id="gHii8LLMTPezBW0MrbkV-27" value="" style="shape=image;verticalLabelPosition=bottom;labelBackgroundColor=default;verticalAlign=top;aspect=fixed;imageAspect=0;image=data:image/png,iVBORw0KGgoAAAANSUhEUgAAAZ4AAAA5CAYAAAAGEk3tAAAAAXNSR0IArs4c6QAAAARnQU1BAACxjwv8YQUAAAAJcEhZcwAAEnQAABJ0Ad5mH3gAAAq9SURBVHhe7Z27cuK+F8cP/6fYLg2kyPAE9hNAmi02tOlwGZp0KdOlwSV0aUmTZu1ia3gChszELpJuy98b+H8ky/iCDQIbs+DvZ0aDL9LR5Ug61gW79d9//wWk+Pv3L/348UOdAQCqBm0MNJFsvf+f+pUEwdoGAQCOANoYaCLZeg/DA0CNoI2BJgLDA8AJQRsDTSRb71ur1YqvBfLGx8eHugwAAAAch9Tmgj9//tCvX7/UGQCgar6/v+nq6kqdAdAMsvU+NdUGAAAAHBsYHgAAALUCwwMAAKBWYHgAAADUCgwPAACAWoHhyeDbFpmtFrVMm3x1DQAAQHU02/C4Nlm2q04ELr2MptQde+S9PlBbXQUAAFAd52F4XItaLYvNQrW47yOajt5jue47Tcmgm9s2tSOrc6S4AQCgqTRsxOOTbcbTaL2JeGPDhHrhTQAAADWgZXjW6x7KmZabWv/wbTPszH2bLNGx8/2IdFiTLDuzcuK7HIbDF/hxLb7Wn/LRlPrifmLtRU92dF+4Ds0GHgXzcBptnW4+juNZ0KjDx3zd3hI3AACAw9hpeETn3Bktqet45HnCOdSd9uk+28nTjO7vV3Tz5JA3CccQYViiJw4n3gXnOQNajjoU2yUegdz3adodkKfeF+c5XZom/PQmHKcz5KMhOSJ+tfaiK3vZ5fREsscGLWa/c41HHI9BY5FXjuehIG4AAAAlEO9qi9zb2xv3z0mcgLvdwBhz170F7tAD7pzZd5Iw7DB9MfRrjINiiTlxOsOMfA3Z3jgwsn6kHCOIRG+kJXNfshE3AIfz9fWljgBoDtl6v33E43/Skn+61wc856uw076Y4opdZ7QI7yfwXTGtZZFpmux4BKSuF6Iju31LA7Y8y/d4WtD/5FDGgG4xbAEAgJNx9M0FPOKQ01wpp9ZY2BTIxf7O84ro5yO9vs5pPndITG7psF12mx6eWNK0T53IMM265GC6DAAATsp2w9O+pi7/LD8PWFIvDOuTvx6C/KYZD1KGTxN66CW2MO9CRza5ZPWXNPCSRmlCHA0AAIATsmPE06NHsSA/uifLFZ26cNyhixFEYudaPnFYm8NKZNgOdV5U2LUBUecs37aeC6balvQp0yCONWRTh24MtUNNjXiEM02boiD6JOMGAABQhp1Tbe2HOXnjLi373Kl3hOvTchjvXNtGFHbGYWXHvxG2RxOxa2zUD+/fvxA9vhLblDS9RxpLbxz/fbilebdsj1Y8mjL4muMoJ4QsRtRXMrTIiRsAAMDhXOwXSOV269mAvPWaT0jRdQDqAF8gBU2kMV8gbV935ejmJTmv5rv0IhaVutcwOgAAcCIu1vBQbyL//Ll8VlNxcjrumWigN00IAADgOFyu4WHabHzm88SutmBOk4ceRjsAAHBCLtrwAAAA+PdorVYrHgyEI4KPjw+6u7tTtwAAAIBq+Pr6UkcXvKsNgH8RsdYoHvIAaBLZeo+pNgAAALUCwwMAAKBWYHgAAADUCgwPAACAWoHhAQAAUCuVGB7x/rNWy6Jd76s+FN+2yBRvHjBP85LOavIn3p5t0sYXww/k1GUiqFrv56hn12qRWZVSt3DsNiaoIw590F50OKXOytT93YbHtcmya8zWRnwuvYym1B175J3xR9x8+5mmwyd6qCQDNZTJsfV+IXruPY6JRi/lGn7dbezYVJAftJeaOSD9Zer+TsPjvo9oOnov17D2YCM+952mZNDNbeJDca71Dz2Z6eDT79mChj8rekdcXpkkqaB8jq33i9Gz/MT6lN5LJLLuNnZsyucH7aVuDkp/ibq/0/D0JuKtBhM63ms1w89fR0Pg48d3AuSXVodUVTuqg+r1cKl6btPtwKBpCctzaXW+dH7QXmrnsPQfXvd3Gh45h5iaF/X5AUHMK3Inws60XPLUHS3El0JFB6TCt1odmg08CtT3cZLxiTnEVl98j1R9SZSv2+trU+pn5mzX87jKibTF6Q5J+zHl8DLtRy9/m3KyMcX4v2e0MG6oo84F63z6PMQV5ZH4ous22Xllkow5vr+rfPLyHlNa7w3Ss/wEx/Twp93jtLE4fH66d8ch9SLKlkcE6zIwrXDdJaq3yWuKbH6kHHGeDCPSVFBgzW0vsf9z0dnBdV+8Midyb29v4r1tKbyxEZAxDjx17gwpIDKCseMFnsduPAwMEteGgaP8FOMFY4MCY+is5WXlp89ZvjNMxJe8xvGJ+FVAGY79DaN0eU4w5HQZ40hy7Geddmcs0570o5O/UE4YvzxXcjhbuUiZmZthPo3AMIYcV6Y8tsoW6c6WSZLofn75bMt7kjB9h+q9YXr2xHWWFYsvhJucOorJlk0VbYyGibKW5ZhOt04coR8uN05bqIOwrKN6G12T8RXqNiGH0xSGUWksyI/038D2cpY606z7QlaSPQ3PZiMXrJWvzguRicw03KhSKJHZAsjel0QVRZ0WpSuNTtr1/WTaxWa610SVKh0gv8w0ZeeVSRLN8slPQ0g6zj3DN03PefktINsABWmZe5a1FlmZenHIzieT17z8Z8Nl/eTJydW3pIHtJZcz0Zlm3c/W+/22U/uftOSf7nXeCp0GcjGKaPkeD1n9T5ZoDOj2QJESnXQV+JFDRb7zKYei+nKm/Wj4GbrOaBHeL8C4SU4cFHCg7J3o5H0bOuWSpMF6Ls2+ZV2A79pkWxaZpsmuT2IyaU1FcRyTRrUXxbnrbB/2MzyladPDE9vtaZ86USWZdck5w23SbOGFCU87tX5RlmPKrgfo+XSEmzg6zyuin4/0+jqn+dwh1sbFcv7tpXk628/wtK9J2vydJr8Il6z+kgZesoJMqFe2huikq8CPfBLnO/JBooQcUXn83GBtEg9Ki5XG8vDesjXRyfs2dMolRRP1bJDOQ/pO9i7rDHJHGHfGTxN64ALP3T5cNo6j0sD2cvY627/u7zni6dFPNsOL0T3ZrlAuO9eie+2hbYduDLW7RD0JC2eaNrG4PeEhr0yDOO7R49iQ6bKidIldIkL+ehtG7CdOuy3Tbowf1TZCnfyl5UhkXB3qvOTv7ejciHmnT24Ou9hfdjH55VOc923sq/eG6dlb0UKnQ9KiZBtbd1AqjRzetp7T0zZl4zgyjWsv56yzQ+v+fpsLBF4wHoqFKZJO7lzKLFQVoxbIOIzjKBftzFBxbMSXuzCYSEPCb7zLI5E2dS8i7ccIhuOsH7386cS1ZmPxUoQvLrOdsnctlibzUFg+eXmPKaf3ZulZLsTydR2EjCzlyjoHLst1msUuMLUjKb0wvTuO02wuYBrXXpgz1Zlu3RfpTbLT8FRJXgEIiq5fDmFHrKGfi6BZeg47CF3dZhsgyKNZ7eV80a/72Xpf8aeveZhrPsvdF3mI4eR0sWAD6dEkmvAXQ+P7Pk27DgWT/f43e06IP2h1Vk8Xncc1riX/lNcIPfs2mZ0VPWn+61tMOXK7U2eHsKONDV5pUs0Lzk5Ko9rLubJH3d+o93WOeATij1GG2KfPFjB024ewl4N4its23L8smqJnMdWQ/W/FNkRZAB2a1V7OkX3qfrbeVzziAQBso/yIB4DzI1vva/4fDwAAgKbTWq1WYuQjrdHHxwfd3d2pWwAAAEA1fH19qSM2PJhqA6A+vr+/6erqSp0B0Ayy9R5TbQAAAGoFhgcAAECtwPAAAACoEaL/A4xYNYFZ/sVkAAAAAElFTkSuQmCC;" parent="1" vertex="1">
          <mxGeometry x="180" y="920" width="414" height="57" as="geometry" />
        </mxCell>
        <mxCell id="gHii8LLMTPezBW0MrbkV-22" value="" style="endArrow=none;html=1;rounded=0;" parent="1" edge="1">
          <mxGeometry relative="1" as="geometry">
            <mxPoint x="478" y="970" as="sourcePoint" />
            <mxPoint x="478" y="970" as="targetPoint" />
          </mxGeometry>
        </mxCell>
        <mxCell id="gHii8LLMTPezBW0MrbkV-24" value="" style="endArrow=none;html=1;rounded=0;" parent="1" edge="1">
          <mxGeometry relative="1" as="geometry">
            <mxPoint x="180" y="970" as="sourcePoint" />
            <mxPoint x="400" y="970" as="targetPoint" />
          </mxGeometry>
        </mxCell>
        <mxCell id="cYgCO2ZQ6gfYATVRZ9yF-4" value="" style="shape=image;verticalLabelPosition=bottom;labelBackgroundColor=default;verticalAlign=top;aspect=fixed;imageAspect=0;image=data:image/png,iVBORw0KGgoAAAANSUhEUgAAAGEAAAA5CAYAAAAm20U5AAAAAXNSR0IArs4c6QAAAARnQU1BAACxjwv8YQUAAAAJcEhZcwAAEnQAABJ0Ad5mH3gAAAN/SURBVHhe7Zq/UvJAFMVPfAM7OxvyFY5PEJ4AaCiUli4ppbGztLMJpXS22NCQFNbmCZhxxmRG7Sx9g3x3kwURIyHsAqvc37BD9k8Q97D3bJJrvby8pIeHh5jy/v6Oo6MjWWOqss78HcwLIEjTVB4x67DO/B3I9xksghosggGsM3/W09MTnZdmJ4tCddnFbAvr4+Pji3QPDw84OzuTNaYqb29vOD4+lrXV+BaOmO3DIhgAi2AALIIBsAgGUCJCgn7dgmX9UOp9GsGoUiJCDRd3MeJYlAC+Q02OjyCrU7m7oBGMKuXhqFajlyi2bADsWZtsYJRgTzAARRGkZ3ihrEuSPurkGaI59PL+JPSyttxLPIQLZpL05/qtOrz+/riNogjkGVcuMBhhXoZkPEQEF+2GbJhc42bUxt3UWzBAs/tp6km/DrsHXFG/uH8VBx1MenYm4l4g7h3Nl/v7e3FDr4A4JWNOyZjpaJ4gJRlSN5BVOc7x81GBS+d8duYErrhfJc9ZPD8n9p2Cv2U+r6+v8mh1NHhCA+1sMcifbTLGMHLQaS1x7Uab1okkecaE3gbNaSjKi92L8v49QIsxNzIVriHCeBaKnA6WaVAErYTZ7fRZedyPLbCe3VHjkq4hIgzHCcbDCE6ntXzywhG5goMTseut/cMpvU2eF404QbIn3qxHBJryVsdBNOwWhyJaJZ7YIdGsJkkI73pAF33T1dLAJZlI1OuiP90yiTGWDftmP5xZkwgkQ6sDJ4qKQ5F7hcuTEbo2TazdpFXgIpi72q5dPCL2TzFs2rkn0JiJGyC+nW6v/jir745KiP3UKdjlFO6O/jA72h1R9KAwE970vl4bMCujLgJdHYsw0xw49IO/pQjPVIUf9GuGH/T/Ugrzjs7Pz2U3sw5kzvJoNTgcaUZsscWPuQocjgyARTAAFsEAWAQDYBEMoEQEzjvaBiUicN7RNigPR5x3tHHYEwxAUQTOO9KBogicd6SF+adqonDekRri/6qKBk/gvCNVtBgz5x2poWd3xHlHSugRgaac844UUDdmiUx5WeyfGnPsu3l/NsZNg4UP+dJPxRHnyL7fhPjuVeG8I82sI0Lp402xU9k19D3lkfmI+ar6fUs9QXzg0hL7ZLECkXf0vZ9Wgtj6fGuvUv46/KBfMxtZCczm4byjDcB5RzuG0yB/KSyCAbAIOwf4Dxt8NeHamQcFAAAAAElFTkSuQmCC;" parent="1" vertex="1">
          <mxGeometry x="1070" y="620" width="97" height="57" as="geometry" />
        </mxCell>
        <mxCell id="cYgCO2ZQ6gfYATVRZ9yF-6" value="type (ref to Type )" style="whiteSpace=wrap;html=1;align=center;" parent="1" vertex="1">
          <mxGeometry x="777" y="562" width="63" height="28" as="geometry" />
        </mxCell>
        <mxCell id="huDM72R-HYGGMLEO1PFV-4" style="edgeStyle=orthogonalEdgeStyle;rounded=0;orthogonalLoop=1;jettySize=auto;html=1;exitX=0.25;exitY=1;exitDx=0;exitDy=0;entryX=0.138;entryY=1.045;entryDx=0;entryDy=0;entryPerimeter=0;" parent="1" source="huDM72R-HYGGMLEO1PFV-2" target="9hK8F9UHz1f8FxQfXXjA-1" edge="1">
          <mxGeometry relative="1" as="geometry">
            <mxPoint x="1490" y="582.75" as="targetPoint" />
            <Array as="points">
              <mxPoint x="1169" y="640" />
              <mxPoint x="1517" y="640" />
            </Array>
          </mxGeometry>
        </mxCell>
        <mxCell id="huDM72R-HYGGMLEO1PFV-2" value="" style="shape=image;verticalLabelPosition=bottom;labelBackgroundColor=default;verticalAlign=top;aspect=fixed;imageAspect=0;image=data:image/png,iVBORw0KGgoAAAANSUhEUgAAAY0AAAA4CAYAAAAB16SjAAAAAXNSR0IArs4c6QAAAARnQU1BAACxjwv8YQUAAAAJcEhZcwAAEnQAABJ0Ad5mH3gAAArYSURBVHhe7Z2/cuI+EMeX31NclwZSZHgC8wRwTYqENp1dhibFzaRMlwZK6NKSJs2ZInXyBOQyE7tIuivvDfxbyTLIxlgyOMSE72fGd1her/7sSmvJBDX+/fsXEfP371/68eOH+AgA0EDfAIeEyd//U/9TFMnYAQDIgL4BDgmTvyNoAGAAfQMcEggaAGwJ+gY4JEz+3nh5eWGZiF5fX1USAAAAkM/iRfjj4yP9+vWLgiCQFwAAMR8fH3R0dKTOAPjemPx9sTwlQMAAAABQRCpoAAAAAEUgaAAAALAGQQMAAIA1CBoAAACsQdCoiHDUoUbDo5k6BwCA70hx0JiNyBthGAQAABBTGDRmDwOaDB7w9AwAAEBSGDS644iiaExddb5bQhp1GtTojPjTplShAwAAQEJh0JDr9NqAO/N4APZmFM486jT4szg6Ho2EQDgiTwzQelpCOONrYs1fXW90yEsJMFImuS6OFk37AUVPl9RMREZavpXp4PqoawlmmZDbYlmfDrcJ/iwSAHAIlH8RPunRxc0JXQcBBYFP7vOEBhcd6lz8odO7OG1IIi0JNvy0f9GjSbtPQSRmLhEFfpsmgxbxWKuIZeZtfykzdOh5+nsxWIsA1hqQzDfW0af5Rjrm1PdFOfmQOrg+WvCxkZl5LepNiIZK5u7kgW4Gz+oqAAB8Y8RvT4nj/v6ex9k0POhG5AwjHoQlvkupc0FWRiDTyI18db6KH7lEkTNUdwXDyOFzV7/Bd1mHE8UisXzqOpPK21LHIk9FuqxVyYDvxPv7u/oEwPfH5O/lZxobEs5GNPI86nR4VtLhmYdKlzR/Up9H/PnDchkofJvzeN+nn2JdKXwjPuNJTrJkFB8t/eneUkf7OFmoimket/nfOb2Jm7aQAQCAQ2AHQSN+Gd26+UN0ekV3d0/09OQTP61rNOnymlMmPWolAWHaJv9u+S5CwLMIueyUOhbvK+x0AAAA2JzPDxrhb5ryhMC9HtNlt0nN3BF8Rl5vTv1ADwZjYvGY5jHJZ335qK8TUrhI2kyHnI3wFTlx2EIGAAAOgc8PGotBVr2x5lF+5N2kl6eoRSfOMw1a6eWnTmdEMzk2d+lKvNQeXNAoTmA9HCQaLWrdJm/Cy+kIuRxiyexi8EzO8Ep9rdhO5pQnNGkZT8oAAMB3ZwfLU10a+zzKDnrxQH5xS3R1Rzw2awT0h8dcx/XJ99UxlCMz9dS3sJqXTxQM2zTttWI9rR7NWT4YJ39FUk5Hq8VHb0rtoU93l8vpj41MdxyQUD1QMhcPp3SXrhAAAHxLUjv3nZ2dycRdI7/mOu1ToP09hWBdeh5V6AAgD+zcBw6JUjv3fRXy20k8I7hNlp4E4YxuxcuQ9rHVYF+FDgAAAMXUImhQd0yB79L8Ri09yeWnG6K+vvxkoAodAAAACqnF8hQAdQbLU+CQ2IvlKQAAAPtB4+XlJRJ/0/D6+krn5+cqGQAAwKHy/v6uPq2C5SkADIj3Y+LBCoBDwOTvWJ4CAABgDYIGAAAAaxA0AAAAWIOgAQAAwBoEDQAAANZsHTTEbzs1Gh4tdl3de8Sv53bSe5xvwWK/cW2v9V1ThY3qUI+qEHvdd6oycAF16hvmssDv86ir35etW5U+Xxw0ZiPyRiWbfJN7akQ4uqGJe03aj9puwYxuBxNqDwMKPmszqJ20t6Eee2bz7tWQaHC71WCy736eBX6fxw7qsSMq8XlFYdCYPQxoMngoldEm99SHkH5Pn8k9rei3qmYPNCGHTn6u2Xxq5m39JLST9jbUY+9sLrcGntDDFgXebz/PAr/PxVSPfaICn08oDBrdsdgBb6w2H7Jjk3uqI95aduOppNxl0KWq+s4u+Nr2jtk/mzfpZ9+hyRY9qJo6b+mvVQG/r4ia2DOX7X0+oTBoyHWzVAOE/JAg1tK4YfjoeDMK1JWE7D1iLa3BcmJ3O7k2KNcHvXjtNOQppmhkPS1B7MzXWebVaHR4OpoxhZRJroujRdN+oO0bLrLQ8s3ToRH+ntKzc0ItdS5Y1CcpK9cloUi3rHdP7E+odhPMONLy+oR64n7t+qpebj91LcsmNspSlJ+pHoJ9tLn8Kf3J5k+qG7X7RmVftb1ZppwPwO9X87Px+1rZM1sW7lv6LhGCbX1+gfgZEXHc39+L36BKEQydiJxhFKhz36WIyImGfhAFAR9DN3JIpLmRr2Ty76HI4TRf3BP4kSvucRxO4/tU2tARacl9QXzuLvUEviv1uElGSsbhhIVMJm95LsrGechzfyjLu9SRRpY1czHWGZd16GfyKtTN9ZJlTtpLJS9IridtoFKlXq2NlV5nuKJAkq2zjY10zPmJtKJ6rCtDzW0eiHSuU3JjAaIMWcq3u23Zi2xhJ1PWB+D3efmJtOJ61MeeSd9JyhLE92hlkVj6fJ6/65QIGnHHzxoxrvTSMNmGyyt8VkaQ1bNKJn/ZAJnBIDGyFInlM30hN++YZcPr5JfLUneqPDkknUedJnpNbayTzrPs/Zbyhnpk670XNs/TtQZz0LBoR8uyF9uiKhkd+H3CinxRPWplTyVjcmZLnzcFDfuv3IZvNOf/2se7eyMUzkY08njq1unw0eMJrYZ8sUM0f1hO5cI3LqHTp5+iiKq8k542ZeOjNXiWsutwTvRJ+ho21G1kTRvLaSVfeVuZH2coa6Nt8/sEvsLmW2PT7pZlL7TFFjIm4Pcl8hPUyp5dGvOTGhuG7cH9xuM+lF2bqhD7oLFT4hdKrZs/RKdXdHf3RE9PPnGzaDTp8jpuqFbivNM2+ZmvxnFUFWEzfVS0X/hn6j489sPmm2NX9n0Afi+omT27Y3piOwTBNfVpStNeK/89TAXYB43mMcn4ZxWGt0R+m4Od83pMl911X3ebkdebUz/QHXdMLB6ztrwhhblVaJII8M9/TK/PmNK6LVmjVz7B8BXjg1RZG22bX5V8ic0dsnnANmLV7puVPWWLLWTWA79PKOf39bJnqAzQbHbpcswPXGLm8Tyl3yu3VeDzW70I91dfNuXeo693MlkZQf46ntLKeQ1dcV1f21NrsTL/5RG/fFUSUmdc3jgh1ptdv00wl2uJlW6rtd2kPeMkXe+6F2M62TLb2EjHKj9DPXLLkNeOhW27Y5vLOuW3SRaRR5bcOhe2e7myr7OFjcxGPlBomyV6/nHCofp9neyZ9B2+Js+DyJd6M3WX9clvDx1RjyJKBQ3ZUKojywZiR4krvSxI9p7NBhBm0TDifpcNFxtp2ZiqobgMvq+O5FsFmu7lNw3iQ/+2wwo5jbpSLg2j7kKnE2jtubbMTuTyQLpOxWpbmm2UxZifoR7ZMuyDzWUZOd0GoSNL+XbfpOz5tjfLlPQB+H1+foX1qJk9g2Hk6kFM9h91TWHr8+L+IgqDRp1ZdZqYdel2xI5g0a7gC6jO5twJuYPZ2tnUiWz4HH+tCvh9WeptzzzsfX7joLGIWDhwfPPDhI2MEfnUKjqtNpyIpR3xdFiD0VoOdoga9tTcnivIr9uun3XpmPx9b2caArm2p0/JDFNaO8RTV9HUGnwlVdhcTNP1NWMTpk5ky+f4a1XA78tSb3umKePzJn9viIDBQvT4+EhnZ2fiIwBAQ3ydkvuKOgPge2Py95r+nQYAAIA60nh5eREzDnp9faXz83OVDAAA4FB5f39Xn1bB8hQABj4+Pujo6EidAfC9Mfk7lqcAAABYg6ABAADAEqL/AdQQUlV3+9/5AAAAAElFTkSuQmCC;" parent="1" vertex="1">
          <mxGeometry x="1070" y="410" width="397" height="56" as="geometry" />
        </mxCell>
        <mxCell id="huDM72R-HYGGMLEO1PFV-5" style="edgeStyle=orthogonalEdgeStyle;rounded=0;orthogonalLoop=1;jettySize=auto;html=1;entryX=0.04;entryY=0.015;entryDx=0;entryDy=0;entryPerimeter=0;exitX=0.75;exitY=1;exitDx=0;exitDy=0;" parent="1" source="huDM72R-HYGGMLEO1PFV-2" target="abu88LUIir2M0fhcls7T-1" edge="1">
          <mxGeometry relative="1" as="geometry">
            <Array as="points">
              <mxPoint x="1368" y="510" />
              <mxPoint x="202" y="510" />
            </Array>
          </mxGeometry>
        </mxCell>
        <mxCell id="huDM72R-HYGGMLEO1PFV-16" style="edgeStyle=orthogonalEdgeStyle;rounded=0;orthogonalLoop=1;jettySize=auto;html=1;exitX=0.25;exitY=1;exitDx=0;exitDy=0;entryX=0;entryY=0.75;entryDx=0;entryDy=0;" parent="1" source="huDM72R-HYGGMLEO1PFV-15" target="9hK8F9UHz1f8FxQfXXjA-1" edge="1">
          <mxGeometry relative="1" as="geometry">
            <Array as="points">
              <mxPoint x="684" y="490" />
              <mxPoint x="1400" y="490" />
              <mxPoint x="1400" y="590" />
            </Array>
            <mxPoint x="1554.25" y="596.9999999999998" as="targetPoint" />
          </mxGeometry>
        </mxCell>
        <mxCell id="huDM72R-HYGGMLEO1PFV-15" value="" style="shape=image;verticalLabelPosition=bottom;labelBackgroundColor=default;verticalAlign=top;aspect=fixed;imageAspect=0;image=data:image/png,iVBORw0KGgoAAAANSUhEUgAAAcYAAAA6CAYAAAAqRfn/AAAAAXNSR0IArs4c6QAAAARnQU1BAACxjwv8YQUAAAAJcEhZcwAAEnQAABJ0Ad5mH3gAAAwdSURBVHhe7Z2/ctpOEMeX3xukSZsGXGR4AvEE4CaFQ+sOlaZx59KdGyihc+s0biyK1OYJmHjG0kzsNlWeIPrtnu5A/9AfECDw9zMjG0mnvd09Las7nUTj9+/f/qdPn8jw588f+vz5s14DABQBcQNAkjrHRZZu/+n/S/79+6c/AQCKgrgBIEmd4yJLt//CvUXB9339CQBQFMQNAEnqHBdZuiV6jAhwAMqDuAEgCRIjAB8YxA0ASY41MTZeXl54v68KycLrehcAAADw8Wj8/fs3kjZ//vxJFxcXeg0AUIT393f68uWLXgMACHWOiyzdEkOpAAAAwEcGiREAAAAIgcQIAAAAhEBiBAAAAEIgMQIAAAAhPmhi9GjcaVDDnul1AAAAIKBYYpyNyR6feBL5CDYCAADIpVBinD0OaTp8pFNOGzuzcWZTo2GftO8AAOCUKJQYuxN5K86Eunp9v+hhz86YP+2Ow9oIAACgLhRKjN64E0lMMzu4P+dxb6jT4M+ydGwaSwFvTLYksvA2gzfjfSzLHNPokB0pwKgyZr8sLXrou+Q/X1HTFBmH6k2TwUTLNKgj+up9acRtFPLqUX6QY8I2SzndPVT7e1P+NKWe7NtxcgcAALA9m0++mfbo8vYr3bguua5Dg/mUhpcd6lz+om/3wbYRJ4ThpUkG3PO77NG03SdXv5fVddo0HbaWicSUWbSdVZmRRfOHp2VCkQTWGpKqN5DRp0VEhimzoLYjegS6tEXflAS6jiL1KOZDurwjbbNLI2vOrgmGTrsT3uYM+NOAHNHjfpXcAQAA1BR5V2p4+fHjB+eBKJycfLJGPicrBX/XR9aFeBlBbaOB7+j1JI7PacO3Rvood+RbvD4IH+AMWIblB0WC8pH9TLTumMxUXJ/zrU8hQWkysusR1ZJ+iOpr1rN8AE6Bt7c3/QkAYKhzXGTptnmPcUO82ZjGtk2dDvcuO9yD1NsVzXPqc2ZcPK6GPb3XBeeZPp1LV8t7JV7jHpkZtgyW1nCuyip0mfbZFn2zIvUAAAA4SfaYGINJNK3bX0Tfrun+/pmenx2SgcYVTbq64S3THrVMMnpokxMbguSenBrejCyhe5BVsa96AAAA1If9JUbviR64wzW4mdBVt0nN1OwyI7u3oL4bTkQT4uIBzTNq87/Fa/xeoUee2bS2TJgmnUmhdRSpBwAAwEmyv8S4TDZ69gpnmLF9Gx1KpRZ9teY0bEWHMDudMc1UQurStUzGGV7SONjAcjiZNlrUujOzYlZlbC7jcT2eKsOy4jNnFo8sNy3TFamnDAt6VbroVQAAALVlj0OpXZrIDM1hL0h4MpXz+p44/4Rw6Rf3Kq2BQ46jlxEfMx9ST89ubV49kztq00OvFchp9WjB5d3J6glEU2bBZVotWZJlutcjGshjFC1OfikJq0g9hehek5gwFF2WM3QBAADUlVr9gr96ROKhT27sPt667QDUBfyCPwBJ8Av+FdCUG3/cO7wzw5eCN6M7uTnZPkNSBAAAsHNqlRipO1EPxC9u9fClGsK8JepvMIQJAAAAbEC9EiPT5OT4/Byaleo/0+Sqi94iAACAvVC7xAgAAAAcksbLywt3zFY9NF6n79+/690AAADAafL29qY/RanVrFQAjhW5Hy4XlgCAFXWOiyzdMJQKAAAAhEBiBAAAAEIgMQIAAAAhkBgBAACAEEiMAAAAQIjKEqO8z7TRsGmT3544PuSXNjqpLx/fBG9sU0fe8tM53EvGq2i/OthRFTO7QZ2qGjiDauMm+M3TxK/IHAzESRrb2XHYNt5XXByaYolxNiZ7XGFDVC1vz3jjW5oObuiqktfxzOhuOKX2yCU39oPMlbEXf+fYcWRtLr++QsO77RJWHWw+oA6IkzR2YMce27iSuDgCCiXG2eOQpsPHypxRtbz94tHTw5wG3yp6d+vskaZk0dfzNT/ePLO3vkLdi79z7Di6Nm+eU9+a0uMWCtfB5p3pkHteIk5SybNjA/baxhXERRVttWsKJcbuRN6KM6GqXuNdtbxy6KGITYdjvCd6mA+oqnjfB4f1d8DxtXmTzvsWTbf4BvjQfkec7I396r19XBwF8uab8PLjxw8/jjuyfLJGvqvXeYvvDHgbkVqsgeM7UoYGvqNLZBGX5wxYDstwnYFvaZlkDfyRFHBH/sCKbTO4Du9b6UFk+YNIAUaVMfuDxYqVcUehetNkhEj6IrTN6Mq2GLJkK7uX+3iJyc3an5TL/tP74lTRfln15dkhHGWbs25Fz2mRE6cKv8eJ6h3ICMsfJc6/uA5xGUnbVdvIMeF2kHJa7CbtLSy3IU6CJWaHofZtvEVcJOUOEueCgvUS/WWzOkZ8EPuucGLOy7M5jpRbx0aJMTDO8kesmevyslSomLPS5fEJwNsckSdfbCKPvwAt5YBgmzohlseZE2QlRxwnclY+DsqET6x43Wpd9OY61LqzapA0TCOFCWQGuo6cWF2ZstkupbPxpd68xOw3PtBbldyQ/7Xc+Je/IW5z2fbLr0+2ZdmxToeat7kKTrbJHJhBWpBt6/c4ph0G5njts3A7BP5ZSdvE9mXbsJ+DdtByl3rytpTzMgziJK0+2VYgTnh/rdt4q7hIkWvWgwKKpQ38WenK582ADTA+UbpuEtMh0mLWsEFijDdUQNiQPKLyjOGrdSFeRsivI6Zb6KpjiTkxVZGgfNx5aXUHJE9KIV2vgrIj+qSQOGnK+z9aZ9njC5bPsSNu91G0eZqsNeQnxvLtFiX9+Ch5X5rFbE9rm0T7Js7LMIgTQ6J8ph3pMqLUoI23jIt1bbWSF9ho/KB0jVemZJhjitkcJysxln9cw3ulBf9rn1V053hLvNmYxrZNnU6Hlx5N9XaFulFMtHicLe8tea+svdWnc1Ff2zLtNWj5w8i8tIZzVXYd1teW/pTBhrJzWeP/5lmb/y7oNe8mWtn227a+HXCINt+asn6Ps+3xwp5tR5yUjJOydaaxK3/ulC5948y2vG+p7k9b1FcBu4buN+JDAnZgc2XPMe6fYEJF6/YX0bdrur9/pudnZ+UsRZOubsTjPWoZZz20yYlNk+YrDbl0iC7P1Uyl3qXsj8dxtHndqaPtiJNqOTZ/dlVmvFXPvHpPDzQ3F7IlqNLm8omxeUbqGugQXYUw6qqCnXEzoavuuqnPM7J7C+q7YUdNiIsHrLXFIy/VvCbJBeD8l6vXMygtuyBr5KpeEe/Jvdgs237b1lclB2lzi4p0fHIp6/c4hY4Pzs+1lLZ9UxAnhlJxUqjOurRxRXFh6F7TyJrTw1PwmI/VP89OaOaxF9FhBzZv0GMMur3z4SWNZ1IxLzObLvfdVV86w3S/uTdh30aH1ahFX9nZw1a0i93pjIlVZ7p0PbKWtig8eVtHi1p36dORW19lnO6VXZ5HednrWdCr8rV8jsoN/D9W/rdG17w3j7Ltt219FbLvNnd/0ZxrrCb5bxs3K71tc7zSm+2LvwVl8ci2pp2hVZ6TQvi8jII4KVufcCRtXElcxOUGj4HMHy7Th1G5N2mzD5Y+ueWoX/Yqq7aZKT/5RnD9UWwac+ImcwZFbgSn3ThN1OGEpufKTDc3etPW3JRV06wdvZiZZSHZ0Wm+2h69L0HKDeks23NlK3kZkwq49NLXa3WWqcnrdU76snz75daXY0dch2No89Sb/msQGXGq8HucXL1dM/0+aIt0n2bLKDQxI2xLvKyAOEmvL9eOuIz6tfG2cbFOrtildI7pZeqL2KRmrusCmly/xUjXLaBQYjxW0k4YYd32YqTPgAL1oLo25+DlL5+i7ZwVZB8TxMlpssO4WDPbtUwiLkOWbjuYfMNdWDVbMH2x9/gCWjUjbD6kO9O9FriLfSc3qtpn2WPYawm67Sf/5ocjpbI23/ubW+oTN9WAODlJdhQXMkQ6uxvSnGrytqRT7jEK8jCppYYdzJI9nFIMuRrOHg4Bh6OKNper1OznyaJIPSAO4uTU2ElcmCFUidOUjuEheowNSYZcYMnPnz/p4uJCrwEAiiATfDie9BoAQKhzXGTpdsTPMQIAAADV03h5eZGeo8qcsvA6ff/+Xe8GAAAATpO3tzf9KQqGUgGogPf3d/ry5YteAwAIdY6LLN0wlAoAAACEQGIEAAAAQiAxAgAAAEuI/gegAy7ZKOVJVwAAAABJRU5ErkJggg==;" parent="1" vertex="1">
          <mxGeometry x="570" y="364" width="454" height="58" as="geometry" />
        </mxCell>
        <mxCell id="huDM72R-HYGGMLEO1PFV-17" style="edgeStyle=orthogonalEdgeStyle;rounded=0;orthogonalLoop=1;jettySize=auto;html=1;exitX=0.75;exitY=1;exitDx=0;exitDy=0;entryX=0.125;entryY=1.031;entryDx=0;entryDy=0;entryPerimeter=0;" parent="1" source="huDM72R-HYGGMLEO1PFV-15" target="-4S_704-1h1x6RabV06D-4" edge="1">
          <mxGeometry relative="1" as="geometry">
            <Array as="points">
              <mxPoint x="911" y="442" />
              <mxPoint x="360" y="442" />
              <mxPoint x="360" y="360" />
              <mxPoint x="277" y="360" />
            </Array>
          </mxGeometry>
        </mxCell>
        <mxCell id="9hK8F9UHz1f8FxQfXXjA-1" value="" style="shape=image;verticalLabelPosition=bottom;labelBackgroundColor=default;verticalAlign=top;aspect=fixed;imageAspect=0;image=data:image/png,iVBORw0KGgoAAAANSUhEUgAAAQ0AAAA3CAYAAAAWhB93AAAAAXNSR0IArs4c6QAAAARnQU1BAACxjwv8YQUAAAAJcEhZcwAAEnQAABJ0Ad5mH3gAAAguSURBVHhe7Z29ktpIEMcbv4EzZ07AdbZ5AhFeBJtsYJOSiXBJNnO42SZSCNmmONlkReC6EJ6Asq8sVXmdOTu/ga5nNBKjL5CwEAL+vyrVSvPZ09K0ZkbsdOvHjx/+y5cvKeTxH4f8vzbX50Dr3//o+u+BugJ18uvXL3r16pW6AkmarJ882V7oBgOAqvF9X52BLJqsnzzZXqi/ABwEGI3twGgAkABGYzunaDRa37594zhfJhAHX6soAABI0/r9+3fMnHz58oXevn1L79+/VyGnz8+fP+n169fqCtQJdL+dJusnT7bM6ck5GQwAQLVgTQMAUAoYDQBAKWA0AAClgNEAAJQCRgMAUIpiRmNh09heqAsAwCVTyGgsHic0mzwSzAYAoJDR6E/Fr0Wn1FfX9eKR3WtRq2fzGQDg2BQyGp7di3XaxZg78XhB3mJMvRafi6M3Jlsk8HgqIzq5HhbiLTiOywrztHo87UmYApkmjBdHh+ZDl/zlDbXDJLZWb1YZAICDsf9C6GxAo7t39Ml1yXUdMlczmox61Bt9peuHIMwiERYaGx4xjAY06w7JVf/n4jpdnvZ0iO2PIkiz7jqbNJZBq/lTZLCEAetMSNYblDGkdawMAMBBEf97oh+fP3/mvhiHO65PhuVzR5Y4JsWuBck0AhlGpu+o6zSObxL5hqVyuZZv8LWpZ3BMLsPwgyRB+lg8k1W3zvPzszoDdQPdb6fJ+smTbf+Rxp54C5vsMU8veJrS6/HIQ4VL2lc0ZKuxfuSpjwryvq/ZZgzpSsxNvO/EVzzI0acvLR55rGRaAMDhqdFoBAuanbuvRNe39PCwpOWSpzUqNqBNN584hKc+ndAgzLvkPGzWMwQ80pBTk9ihrXkAAA5HfUbDe6I5DwjMT1O66bepndnDFzQerGno6sZgSpw8oP2Guvxn/T258OmRh7VQAGqhPqMRdXi1Ysm93B7fxacn1KF3xoomnfj0o9ezaSGNQp9uxcLoZER2EMDlsKFpdahzj5VQAOqgxulJn6YOTz0mg8AYjO6Jbh+IbYCGS195NGKYDjmOOizOs5rQQH2Fad8sybW6NB90gnI6A1pzend6nF+RAHBpZO7c9eHDB3VVL/Jz6nxIbmJ9Ii+8KNg96nhA99s5m527jkX7DU9geFRxH049BDz9uBeLId03WOgEoAE0ymhQf0ouT2HWd2rqIacfd0RDTD8AaArNMhpMmw3Hcql9PfGXNL3pY5QBQENonNEAADSbTL8nHz9+VNEAgEvm+flZnW1o1NeTQyHWRoRBBPUD3W+nyfrJkw3TEwBAKWA0AAClgNEAAJQCRgMAUAoYDQBAKSozGnIf0db4pHYsj/Yazdy0WG1oXME+gqeom2ZS3T0B+1PMaJyl35MF3U9m1LVccsNNfupqJ/zIVAd0WTuFjMZZ+j1ZPNKMDHp3tdkQqK521q7PxfhsRzrn+Ww2+34VMhrH9XtSH3W181L0WQfwyVM/hYyGnJPHFOOxMdz4L+nxHNNVMaeA9NsyEHuGqV3CVNvS7Uyz2+fKbt0k64muQ58x2py9iI+XeJqgzjDVpq0zGoj4WL3Jsjf5BGm57Ow1BY4X5SSDs8lel5B1aW/XbTrRSery1H3ypO/XOLv9ms7z2qzvMCH4U9kidPcF4ijswkC4FXBc33X5sEzpemC7u4Ljwc1UZyEsc+gaQbZBhcba6fqWwW3S/CVELhlUBtdJu1woopukPoNrwzcMk/M58fAd9QVpDA5T9bkJtxBRW4NyVFFRvkhOVfYmn0qTlCssS6YIiORU1zpZuk/qVZAsI7PujLxBuuSzye3gsKC9gT7CssIwWU7qXmv3RLZT13WQxuCAKE2i7qgNSslZ9ytJ/rMZyspBO3Qu28ztM4Vsme2rSraAPYxG8qEM0BvRNDIbL29E6E8lIN7O5ANaxOdKMd3E86TjA/avL0XqoSsh5065VGfKkSGrU8T1GlCs7nTeuD5EU+OdRZBMI8guXyehowP55Ml/NnXZtutctjlZsSwjzFOhbEz5T67K90j3zYXtcFHE50qVujlkfTn55M5pHJPa7D1Gn675CZw9quGy3GXeoKF0THPaNNcnzx46719v3INULFt5o3HhsLUW5jd+HNDnSt31FaEvn+A7uSbgPc1pFXackyVYZ2myT54qdF6VbOWNRq7vkXOjTfLFG1LE50qVujlkfTn55JuTY3YOXPq3ZBkrmj959DRf8cv26o87RTES96QqTsEnT1mdhz8p6PB5xbLtMdIIhkqh7xGPaxWrtqNzdY24fqSF1GwRnytV6qZYfWGacVifTMNvwtTXBp52yDTiPF52IKct5TSsW47dRZuueKy+mo/2mJqoji/emqruhV1SR9E9qYioU4XDfx55HN0nj36/BDt0zvociy8o4l6Keu9Y+mg0UrFs5RdCBa5vmWIhieQhV5R3LiwdDyFjip0LoYxr+aZYeNPSbb6GaG0PohS7dZOsZ5vudtdXUqZYvXo+wzeteL6t91QtDMafizSi7DSO0mtYL5eQWPzLrTtxT5K63HshlOuPdCG+2LjxxUYpM8cJ3TqOOkL95eo0+37pZOsn+36JtmfpPFwIjdUtvxSpBIpqZOPwIkbj1MlrPPgDsr4mZHAuus8yPIK88KKU0k+OzjO/nlRAnmw7pyf6UKzoAc4bOaW4n9CKTLq+kJ+1HtsnT5N0vtNosGEpfYAzxrNp1OnQYGbwy+2Cfgp/TJ88DdM5NhYGBwW6306T9ZMnG36nAQAoRQt+TwAAeVys3xN4Lj8e0P124DUeAHDmEP0PjIpxFJl9mMgAAAAASUVORK5CYII=;" parent="1" vertex="1">
          <mxGeometry x="1480" y="548.5" width="269" height="55" as="geometry" />
        </mxCell>
        <mxCell id="0UVZOUpeQAsS2UddP9OS-1" value="create_at" style="whiteSpace=wrap;html=1;align=center;" parent="1" vertex="1">
          <mxGeometry x="1082" y="558" width="73" height="32" as="geometry" />
        </mxCell>
        <mxCell id="ZkhEb_x2lc11U3iCsBBG-7" style="edgeStyle=orthogonalEdgeStyle;rounded=0;orthogonalLoop=1;jettySize=auto;html=1;entryX=0;entryY=1;entryDx=0;entryDy=0;" parent="1" source="ZkhEb_x2lc11U3iCsBBG-1" target="-4S_704-1h1x6RabV06D-4" edge="1">
          <mxGeometry relative="1" as="geometry">
            <Array as="points">
              <mxPoint x="310" y="690" />
              <mxPoint x="90" y="690" />
              <mxPoint x="90" y="325" />
            </Array>
          </mxGeometry>
        </mxCell>
        <mxCell id="ZkhEb_x2lc11U3iCsBBG-1" value="&lt;span&gt;idClient(ref to client)&lt;/span&gt;" style="whiteSpace=wrap;html=1;align=center;fontStyle=0" parent="1" vertex="1">
          <mxGeometry x="260" y="720" width="100" height="40" as="geometry" />
        </mxCell>
        <mxCell id="ZkhEb_x2lc11U3iCsBBG-8" style="edgeStyle=orthogonalEdgeStyle;rounded=0;orthogonalLoop=1;jettySize=auto;html=1;entryX=0;entryY=0.75;entryDx=0;entryDy=0;" parent="1" source="ZkhEb_x2lc11U3iCsBBG-2" target="abu88LUIir2M0fhcls7T-1" edge="1">
          <mxGeometry relative="1" as="geometry">
            <Array as="points">
              <mxPoint x="410" y="680" />
              <mxPoint x="146" y="680" />
              <mxPoint x="146" y="579" />
            </Array>
          </mxGeometry>
        </mxCell>
        <mxCell id="ZkhEb_x2lc11U3iCsBBG-2" value="&lt;span&gt;idGood(ref to id of goods)&lt;/span&gt;" style="whiteSpace=wrap;html=1;align=center;fontStyle=0" parent="1" vertex="1">
          <mxGeometry x="360" y="720" width="100" height="40" as="geometry" />
        </mxCell>
        <mxCell id="ZkhEb_x2lc11U3iCsBBG-3" value="quantity" style="whiteSpace=wrap;html=1;align=center;" parent="1" vertex="1">
          <mxGeometry x="454.5" y="720" width="100" height="40" as="geometry" />
        </mxCell>
        <mxCell id="ZkhEb_x2lc11U3iCsBBG-4" value="dateBought" style="whiteSpace=wrap;html=1;align=center;" parent="1" vertex="1">
          <mxGeometry x="554.5" y="720" width="100" height="40" as="geometry" />
        </mxCell>
        <mxCell id="ZkhEb_x2lc11U3iCsBBG-6" value="&lt;u&gt;idOrder&lt;/u&gt;" style="whiteSpace=wrap;html=1;align=center;" parent="1" vertex="1">
          <mxGeometry x="160" y="720" width="100" height="40" as="geometry" />
        </mxCell>
        <mxCell id="ZkhEb_x2lc11U3iCsBBG-9" value="order_good&amp;nbsp;" style="text;html=1;align=center;verticalAlign=middle;resizable=0;points=[];autosize=1;strokeColor=none;fillColor=none;" parent="1" vertex="1">
          <mxGeometry x="150" y="695" width="90" height="30" as="geometry" />
        </mxCell>
        <mxCell id="_sN2Jb0LvVlxQX0NpOw6-2" value="District" style="whiteSpace=wrap;html=1;align=center;" parent="1" vertex="1">
          <mxGeometry x="754.5" y="720" width="100" height="40" as="geometry" />
        </mxCell>
        <mxCell id="_sN2Jb0LvVlxQX0NpOw6-3" value="City" style="whiteSpace=wrap;html=1;align=center;" parent="1" vertex="1">
          <mxGeometry x="654.5" y="720" width="100" height="40" as="geometry" />
        </mxCell>
      </root>
    </mxGraphModel>
  </diagram>
</mxfile>
